# Blender 4.5.4 LTS
# www.blender.org
o Cube
v -0.680000 -0.229500 0.500000
v -0.680000 0.229500 0.500000
v -0.680000 -0.229500 -0.500000
v -0.680000 0.229500 -0.500000
v 0.680000 -0.229500 0.500000
v 0.680000 0.229500 0.500000
v 0.800000 -0.229500 -0.425000
v 0.800000 0.229500 -0.425000
v -0.800000 -0.229500 0.425000
v -0.800000 0.229500 0.425000
v 0.800000 0.229500 0.425000
v 0.800000 -0.229500 0.425000
v 0.680000 0.229500 -0.500000
v 0.680000 -0.229500 -0.500000
v 0.800000 -0.270000 0.500000
v 0.680000 0.270000 0.425000
v -0.800000 0.229500 -0.425000
v -0.800000 -0.229500 -0.425000
v 0.800000 -0.270000 -0.500000
v 0.680000 0.270000 -0.425000
v -0.800000 -0.270000 -0.500000
v -0.800000 -0.270000 0.500000
v -0.680000 0.270000 0.425000
v -0.680000 0.270000 -0.425000
v -0.800000 0.270000 0.500000
v -0.800000 0.270000 -0.500000
v 0.800000 0.270000 -0.500000
v 0.800000 0.270000 0.500000
v -0.680000 -0.229500 0.450000
v -0.680000 0.229500 0.450000
v 0.680000 0.229500 0.450000
v 0.680000 -0.229500 0.450000
v 0.750000 0.229500 -0.425000
v 0.750000 -0.229500 -0.425000
v 0.750000 -0.229500 0.425000
v 0.750000 0.229500 0.425000
v -0.680000 0.229500 -0.450000
v -0.680000 -0.229500 -0.450000
v 0.680000 -0.229500 -0.450000
v 0.680000 0.229500 -0.450000
v -0.750000 -0.229500 -0.425000
v -0.750000 -0.229500 0.425000
v -0.750000 0.229500 0.425000
v -0.750000 0.229500 -0.425000
v -0.680000 -0.230000 0.425000
v -0.680000 -0.230000 -0.425000
v 0.680000 -0.230000 -0.425000
v 0.680000 -0.230000 0.425000
vn -0.0000 -0.0000 1.0000
vn -0.0000 -1.0000 -0.0000
vn -0.0000 -0.0000 -1.0000
vn -0.0000 1.0000 -0.0000
vn -1.0000 -0.0000 -0.0000
vn 1.0000 -0.0000 -0.0000
vt 0.606250 0.231250
vt 0.393750 0.231250
vt 0.606250 0.268750
vt 0.606250 0.481250
vt 0.606250 0.731250
vt 0.393750 0.731250
vt 0.393750 0.981250
vt 0.393750 0.768750
vt 0.125000 0.500000
vt 0.375000 0.500000
vt 0.375000 0.750000
vt 0.125000 0.750000
vt 0.643750 0.731250
vt 0.643750 0.518750
vt 0.606250 0.981250
vt 0.625000 1.000000
vt 0.375000 1.000000
vt 0.606250 0.768750
vt 0.625000 0.750000
vt 0.606250 0.518750
vt 0.393750 0.518750
vt 0.625000 0.500000
vt 0.393750 0.268750
vt 0.375000 0.250000
vt 0.625000 0.250000
vt 0.393750 0.481250
vt 0.393750 0.018750
vt 0.375000 0.000000
vt 0.606250 0.018750
vt 0.625000 0.000000
vt 0.856250 0.731250
vt 0.856250 0.518750
vt 0.875000 0.500000
vt 0.875000 0.750000
s 0
f 17/1/1 18/2/1 41/2/1 44/1/1
f 4/3/2 13/4/2 40/4/2 37/3/2
f 11/5/3 12/6/3 35/6/3 36/5/3
f 1/7/4 5/8/4 32/8/4 29/7/4
f 21/9/2 19/10/2 15/11/2 22/12/2
f 16/13/5 20/14/5 47/14/5 48/13/5
f 1/7/1 2/15/1 25/16/1 22/17/1
f 6/18/1 5/8/1 15/11/1 28/19/1
f 5/8/1 1/7/1 22/17/1 15/11/1
f 2/15/1 6/18/1 28/19/1 25/16/1
f 8/20/6 7/21/6 19/10/6 27/22/6
f 7/21/6 12/6/6 15/11/6 19/10/6
f 11/5/6 8/20/6 27/22/6 28/19/6
f 12/6/6 11/5/6 28/19/6 15/11/6
f 4/3/3 3/23/3 21/24/3 26/25/3
f 3/23/3 14/26/3 19/10/3 21/24/3
f 13/4/3 4/3/3 26/25/3 27/22/3
f 14/26/3 13/4/3 27/22/3 19/10/3
f 9/27/5 18/2/5 21/24/5 22/28/5
f 10/29/5 9/27/5 22/28/5 25/30/5
f 17/1/5 10/29/5 25/30/5 26/25/5
f 18/2/5 17/1/5 26/25/5 21/24/5
f 23/31/4 24/32/4 26/33/4 25/34/4
f 24/32/4 20/14/4 27/22/4 26/33/4
f 20/14/4 16/13/4 28/19/4 27/22/4
f 16/13/4 23/31/4 25/34/4 28/19/4
f 32/8/1 31/18/1 30/15/1 29/7/1
f 2/15/6 1/7/6 29/7/6 30/15/6
f 6/18/2 2/15/2 30/15/2 31/18/2
f 5/8/5 6/18/5 31/18/5 32/8/5
f 34/21/6 33/20/6 36/5/6 35/6/6
f 12/6/4 7/21/4 34/21/4 35/6/4
f 8/20/2 11/5/2 36/5/2 33/20/2
f 7/21/1 8/20/1 33/20/1 34/21/1
f 38/23/3 37/3/3 40/4/3 39/26/3
f 3/23/6 4/3/6 37/3/6 38/23/6
f 13/4/5 14/26/5 39/26/5 40/4/5
f 14/26/4 3/23/4 38/23/4 39/26/4
f 42/27/5 43/29/5 44/1/5 41/2/5
f 9/27/3 10/29/3 43/29/3 42/27/3
f 10/29/2 17/1/2 44/1/2 43/29/2
f 18/2/4 9/27/4 42/27/4 41/2/4
f 47/14/4 46/32/4 45/31/4 48/13/4
f 24/32/6 23/31/6 45/31/6 46/32/6
f 23/31/3 16/13/3 48/13/3 45/31/3
f 20/14/1 24/32/1 46/32/1 47/14/1
o Cube.001
v -0.680000 0.303673 0.433061
v -0.680000 0.728673 -0.303061
v 0.680000 0.303673 0.433061
v 0.680000 0.728673 -0.303061
v -0.800416 0.759430 -0.275334
v -0.800160 0.342945 0.446039
v 0.799584 0.759430 -0.275334
v 0.799840 0.342945 0.446039
v 0.680000 0.829031 -0.245119
v -0.800170 0.798953 -0.240454
v -0.800411 0.838286 -0.161647
v -0.800778 0.850984 -0.072453
v -0.801216 0.841290 0.022287
v -0.801668 0.812625 0.118348
v -0.802073 0.767902 0.211356
v -0.802368 0.709918 0.296599
v -0.802490 0.641339 0.369329
v -0.802374 0.564430 0.424890
v -0.801951 0.481048 0.458230
v -0.801145 0.393204 0.463208
v 0.680000 0.404031 0.491003
v -0.680000 0.404031 0.491003
v 0.799830 0.798953 -0.240454
v 0.799589 0.838286 -0.161647
v 0.799222 0.850984 -0.072453
v 0.798784 0.841290 0.022287
v 0.798332 0.812625 0.118348
v 0.797927 0.767902 0.211356
v 0.797632 0.709918 0.296599
v 0.797510 0.641339 0.369329
v 0.797626 0.564430 0.424890
v 0.798049 0.481048 0.458230
v 0.798855 0.393204 0.463208
v -0.680000 0.829031 -0.245119
v -0.800000 0.766173 -0.368013
v -0.800000 0.266173 0.498013
v -0.801322 0.364193 0.531498
v -0.800122 0.843662 -0.299627
v -0.800440 0.888067 -0.210656
v -0.800889 0.902815 -0.107068
v -0.801403 0.891331 0.005166
v -0.801916 0.857040 0.120078
v -0.802363 0.803368 0.231699
v -0.802680 0.733741 0.334058
v -0.802799 0.651585 0.421187
v -0.802656 0.560324 0.487117
v -0.802186 0.463385 0.525877
v 0.800000 0.266173 0.498013
v 0.800000 0.766173 -0.368013
v 0.799878 0.843662 -0.299627
v 0.799560 0.888067 -0.210656
v 0.799111 0.902815 -0.107068
v 0.798598 0.891331 0.005166
v 0.798084 0.857040 0.120078
v 0.797637 0.803368 0.231699
v 0.797320 0.733741 0.334058
v 0.797201 0.651585 0.421187
v 0.797344 0.560324 0.487117
v 0.797814 0.463385 0.525877
v 0.798678 0.364193 0.531498
v 0.749841 0.342681 0.445787
v 0.749585 0.759166 -0.275587
v 0.749831 0.798688 -0.240707
v 0.749590 0.838021 -0.161900
v 0.749223 0.850720 -0.072705
v 0.748785 0.841025 0.022034
v 0.748334 0.812360 0.118095
v 0.747929 0.767638 0.211104
v 0.747633 0.709654 0.296347
v 0.747511 0.641075 0.369076
v 0.747627 0.564165 0.424638
v 0.748051 0.480783 0.457977
v 0.748856 0.392939 0.462956
v -0.750418 0.759695 -0.275082
v -0.750162 0.343210 0.446292
v -0.751146 0.393468 0.463461
v -0.750171 0.799218 -0.240202
v -0.750412 0.838550 -0.161395
v -0.750780 0.851249 -0.072200
v -0.751218 0.841555 0.022540
v -0.751669 0.812890 0.118600
v -0.752074 0.768167 0.211609
v -0.752369 0.710183 0.296852
v -0.752492 0.641604 0.369581
v -0.752376 0.564695 0.425143
v -0.751952 0.481313 0.458482
vn -0.0000 0.5000 -0.8660
vn -0.0000 -0.8660 -0.5000
vn 0.0067 -0.3712 -0.9285
vn -0.0000 0.6617 -0.7498
vn -0.0000 0.8947 -0.4466
vn -0.0000 0.9900 -0.1409
vn -0.0000 0.9948 0.1018
vn -0.0000 0.9582 0.2859
vn -0.0000 0.9012 0.4333
vn -0.0000 0.8268 0.5624
vn -0.0000 -0.3233 0.9463
vn -0.0000 0.0566 0.9984
vn -0.0000 0.3713 0.9285
vn -0.0000 0.5856 0.8106
vn -0.0000 0.7276 0.6860
vn -0.0000 -0.5000 0.8660
vn -1.0000 -0.0000 -0.0000
vn 1.0000 -0.0000 -0.0000
vn -1.0000 -0.0062 -0.0034
vn -0.9999 -0.0119 -0.0106
vn -1.0000 -0.0023 -0.0022
vn -1.0000 -0.0043 -0.0036
vn -1.0000 -0.0055 -0.0052
vn -1.0000 -0.0056 -0.0062
vn -1.0000 -0.0049 -0.0065
vn -1.0000 -0.0042 -0.0061
vn -1.0000 -0.0041 -0.0054
vn -1.0000 -0.0051 -0.0049
vn -1.0000 -0.0070 -0.0052
vn -0.9999 -0.0093 -0.0062
vn -1.0000 0.0029 -0.0021
vn 1.0000 0.0062 0.0034
vn 1.0000 -0.0029 0.0021
vn 1.0000 0.0023 0.0022
vn 1.0000 0.0043 0.0036
vn 1.0000 0.0055 0.0052
vn 1.0000 0.0056 0.0062
vn 1.0000 0.0049 0.0065
vn 1.0000 0.0042 0.0061
vn 1.0000 0.0041 0.0054
vn 1.0000 0.0051 0.0049
vn 1.0000 0.0070 0.0052
vn 0.9999 0.0093 0.0062
vn 0.9999 0.0119 0.0106
vn 1.0000 0.0053 0.0051
vn 0.0045 -0.9900 0.1410
vn 0.0053 -0.0565 -0.9984
vn 0.0058 -0.9948 -0.1018
vn 0.0031 0.3233 -0.9463
vn 0.0065 -0.9582 -0.2859
vn 0.0070 -0.9012 -0.4333
vn 0.0072 -0.8268 -0.5624
vn -0.0071 0.8660 0.5000
vn 0.0073 -0.7275 -0.6860
vn -0.0003 -0.6617 0.7498
vn 0.0072 -0.5856 -0.8106
vn 0.0025 -0.8947 0.4466
vn -1.0000 -0.0053 -0.0051
vt 0.356250 0.731250
vt 0.143750 0.731250
vt 0.143750 0.518750
vt 0.125000 0.750000
vt 0.125000 0.500000
vt 0.356250 0.518750
vt 0.375000 0.500000
vt 0.375000 0.750000
vt 0.016814 0.092207
vt 0.012164 0.064753
vt 0.036493 0.064753
vt 0.050442 0.092207
vt 0.000000 0.000000
vt 0.086921 0.508236
vt 0.086801 0.360515
vt 0.039069 0.224406
vt 0.039239 0.167009
vt 0.016906 0.076350
vt 0.012223 0.057176
vt 0.010354 0.049695
vt 0.009529 0.046731
vt 0.009285 0.046435
vt 0.009511 0.048489
vt 0.010317 0.053667
vt 0.260403 0.360515
vt 0.260763 0.508236
vt 0.117716 0.167009
vt 0.050718 0.076350
vt 0.036670 0.057176
vt 0.031062 0.049695
vt 0.028588 0.046731
vt 0.027854 0.046435
vt 0.028533 0.048489
vt 0.030950 0.053667
vt 0.117208 0.224406
s 0
f 51/35/7 49/36/7 70/36/7 69/35/7
f 50/37/8 49/36/8 84/38/8 83/39/8
f 52/40/8 50/37/8 83/39/8 97/41/8
f 51/35/8 52/40/8 97/41/8 96/42/8
f 49/36/8 51/35/8 96/42/8 84/38/8
f 67/43/9 66/44/9 133/44/9 134/43/9
f 79/45/9 80/46/9 120/46/9 119/45/9
f 97/41/10 83/39/10 86/47/10 98/47/10
f 87/47/11 99/47/11 98/47/11 86/47/11
f 88/47/12 100/47/12 99/47/12 87/47/12
f 89/47/13 101/47/13 100/47/13 88/47/13
f 90/47/14 102/47/14 101/47/14 89/47/14
f 91/47/15 103/47/15 102/47/15 90/47/15
f 92/47/16 104/47/16 103/47/16 91/47/16
f 96/42/17 108/47/17 85/47/17 84/38/17
f 85/47/18 108/47/18 107/47/18 95/47/18
f 95/47/19 107/47/19 106/47/19 94/47/19
f 94/47/20 106/47/20 105/47/20 93/47/20
f 93/47/21 105/47/21 104/47/21 92/47/21
f 82/37/8 57/40/8 69/35/8 70/36/8
f 50/37/22 52/40/22 57/40/22 82/37/22
f 52/40/23 51/35/23 69/35/23 57/40/23
f 49/36/24 50/37/24 82/37/24 70/36/24
f 54/48/25 53/49/25 83/39/25 84/38/25
f 68/50/26 54/48/26 84/38/26 85/47/26
f 58/51/27 59/52/27 87/47/27 86/47/27
f 59/52/28 60/53/28 88/47/28 87/47/28
f 60/53/29 61/54/29 89/47/29 88/47/29
f 61/54/30 62/55/30 90/47/30 89/47/30
f 62/55/31 63/56/31 91/47/31 90/47/31
f 63/56/32 64/57/32 92/47/32 91/47/32
f 64/57/33 65/58/33 93/47/33 92/47/33
f 65/58/34 66/44/34 94/47/34 93/47/34
f 66/44/35 67/43/35 95/47/35 94/47/35
f 67/43/36 68/50/36 85/47/36 95/47/36
f 53/49/37 58/51/37 86/47/37 83/39/37
f 55/59/38 56/60/38 96/42/38 97/41/38
f 71/61/39 55/59/39 97/41/39 98/47/39
f 72/62/40 71/61/40 98/47/40 99/47/40
f 73/63/41 72/62/41 99/47/41 100/47/41
f 74/64/42 73/63/42 100/47/42 101/47/42
f 75/65/43 74/64/43 101/47/43 102/47/43
f 76/66/44 75/65/44 102/47/44 103/47/44
f 77/67/45 76/66/45 103/47/45 104/47/45
f 78/68/46 77/67/46 104/47/46 105/47/46
f 79/45/47 78/68/47 105/47/47 106/47/47
f 80/46/48 79/45/48 106/47/48 107/47/48
f 81/69/49 80/46/49 107/47/49 108/47/49
f 56/60/50 81/69/50 108/47/50 96/42/50
f 121/69/51 109/60/51 110/59/51 111/61/51 112/62/51 113/63/51 114/64/51 115/65/51 116/66/51 117/67/51 118/68/51 119/45/51 120/46/51
f 72/62/52 73/63/52 113/63/52 112/62/52
f 80/46/53 81/69/53 121/69/53 120/46/53
f 73/63/54 74/64/54 114/64/54 113/63/54
f 81/69/55 56/60/55 109/60/55 121/69/55
f 74/64/56 75/65/56 115/65/56 114/64/56
f 75/65/57 76/66/57 116/66/57 115/65/57
f 76/66/58 77/67/58 117/67/58 116/66/58
f 56/60/59 55/59/59 110/59/59 109/60/59
f 77/67/60 78/68/60 118/68/60 117/67/60
f 55/59/61 71/61/61 111/61/61 110/59/61
f 78/68/62 79/45/62 119/45/62 118/68/62
f 71/61/63 72/62/63 112/62/63 111/61/63
f 123/48/64 124/50/64 134/43/64 133/44/64 132/58/64 131/57/64 130/56/64 129/55/64 128/54/64 127/53/64 126/52/64 125/51/64 122/49/64
f 60/53/52 59/52/52 126/52/52 127/53/52
f 68/50/53 67/43/53 134/43/53 124/50/53
f 61/54/54 60/53/54 127/53/54 128/54/54
f 58/51/61 53/49/61 122/49/61 125/51/61
f 62/55/56 61/54/56 128/54/56 129/55/56
f 63/56/57 62/55/57 129/55/57 130/56/57
f 64/57/58 63/56/58 130/56/58 131/57/58
f 53/49/59 54/48/59 123/48/59 122/49/59
f 65/58/60 64/57/60 131/57/60 132/58/60
f 54/48/55 68/50/55 124/50/55 123/48/55
f 66/44/62 65/58/62 132/58/62 133/44/62
f 59/52/63 58/51/63 125/51/63 126/52/63
