# Blender 4.5.4 LTS
# www.blender.org
o BézierCurve.002
v 0.000000 -0.030000 0.000000
v -0.025064 0.069595 0.028771
v -0.039676 0.166759 0.054080
v -0.062969 0.259063 0.094424
v -0.094074 0.344074 0.148300
v -0.132124 0.419363 0.214204
v -0.176250 0.482500 0.290633
v -0.225584 0.531053 0.376083
v -0.279259 0.562593 0.469050
v -0.336406 0.574688 0.568032
v -0.396157 0.564907 0.671524
v -0.457645 0.530822 0.778023
v -0.520000 0.470000 0.886025
v -0.068365 0.099595 0.003771
v -0.126278 0.196759 0.004080
v -0.192873 0.289063 0.019424
v -0.267279 0.374074 0.048300
v -0.348630 0.449363 0.089204
v -0.436058 0.512500 0.140633
v -0.500946 0.560822 0.753023
v -0.482760 0.594907 0.621524
v -0.466310 0.604688 0.493032
v -0.452464 0.592593 0.369050
v -0.442091 0.561053 0.251083
v 0.018238 0.099595 0.053771
v -0.414344 0.560822 0.803023
v 0.046927 0.196759 0.104080
v -0.309555 0.594907 0.721524
v 0.066935 0.289063 0.169424
v -0.206502 0.604688 0.643032
v 0.079131 0.374074 0.248300
v -0.106054 0.592593 0.569050
v 0.084383 0.449363 0.339204
v -0.009078 0.561053 0.501083
v 0.083558 0.512500 0.440633
v 0.030127 0.069595 -0.000000
v 0.059352 0.166759 0.000000
v 0.105937 0.259063 0.000000
v 0.168148 0.344074 0.000000
v 0.244248 0.419363 0.000000
v 0.332500 0.482500 0.000000
v 0.431169 0.531053 0.000000
v 0.538518 0.562593 -0.000000
v 0.652812 0.574688 0.000000
v 0.772315 0.564907 -0.000000
v 0.895289 0.530822 0.000000
v 1.020000 0.470000 0.000000
v 0.030127 0.099595 0.050000
v 0.059352 0.196759 0.100000
v 0.105937 0.289063 0.150000
v 0.168148 0.374074 0.200000
v 0.244248 0.449363 0.250000
v 0.332500 0.512500 0.300000
v 0.895289 0.560822 0.050000
v 0.772315 0.594907 0.100000
v 0.652812 0.604688 0.150000
v 0.538519 0.592593 0.200000
v 0.431169 0.561053 0.250000
v 0.030127 0.099595 -0.050000
v 0.895289 0.560822 -0.050000
v 0.059352 0.196759 -0.100000
v 0.772315 0.594907 -0.100000
v 0.105937 0.289063 -0.150000
v 0.652812 0.604688 -0.150000
v 0.168148 0.374074 -0.200000
v 0.538518 0.592593 -0.200000
v 0.244248 0.449363 -0.250000
v 0.431169 0.561053 -0.250000
v 0.332500 0.512500 -0.300000
v -0.025064 0.069595 -0.028771
v -0.039676 0.166759 -0.054080
v -0.062969 0.259063 -0.094424
v -0.094074 0.344074 -0.148300
v -0.132124 0.419363 -0.214204
v -0.176250 0.482500 -0.290633
v -0.225584 0.531053 -0.376083
v -0.279259 0.562593 -0.469050
v -0.336406 0.574688 -0.568032
v -0.396157 0.564907 -0.671524
v -0.457645 0.530822 -0.778023
v -0.520000 0.470000 -0.886025
v 0.018238 0.099595 -0.053771
v 0.046927 0.196759 -0.104080
v 0.066935 0.289063 -0.169424
v 0.079131 0.374074 -0.248300
v 0.084383 0.449363 -0.339204
v 0.083558 0.512500 -0.440633
v -0.414343 0.560822 -0.803023
v -0.309555 0.594907 -0.721524
v -0.206502 0.604688 -0.643032
v -0.106054 0.592593 -0.569050
v -0.009078 0.561053 -0.501083
v -0.068365 0.099595 -0.003771
v -0.500946 0.560822 -0.753023
v -0.126278 0.196759 -0.004080
v -0.482760 0.594907 -0.621524
v -0.192873 0.289063 -0.019424
v -0.466310 0.604688 -0.493032
v -0.267279 0.374074 -0.048300
v -0.452464 0.592593 -0.369050
v -0.348630 0.449363 -0.089204
v -0.442091 0.561053 -0.251083
v -0.436058 0.512500 -0.140633
vn 0.6402 0.3575 -0.6799
vn 0.6475 0.3880 -0.6559
vn 0.5516 0.2870 -0.7832
vn 0.5557 0.5101 -0.6565
vn 0.5223 0.4488 -0.7251
vn 0.4914 0.6332 -0.5979
vn 0.4783 0.5882 -0.6520
vn 0.4269 0.7421 -0.5168
vn 0.4240 0.7083 -0.5644
vn 0.3572 0.8352 -0.4182
vn 0.3602 0.8106 -0.4617
vn 0.3134 0.8755 -0.3678
vn 0.3122 0.8921 -0.3266
vn 0.2615 0.9380 -0.2278
vn 0.2629 0.9497 -0.1704
vn 0.2102 0.9750 -0.0716
vn 0.2205 0.9753 0.0081
vn 0.1707 0.9806 0.0965
vn 0.2090 0.9549 0.2109
vn 0.1726 0.9474 0.2695
vn 0.3179 0.8343 0.4505
vn 0.2182 0.7911 0.5715
vn 0.1836 0.8352 -0.5184
vn 0.2198 0.8106 -0.5428
vn 0.2885 0.3320 -0.8981
vn 0.2443 0.3880 -0.8887
vn 0.4025 0.2870 -0.8693
vn 0.3668 0.4488 -0.8149
vn 0.2907 0.5101 -0.8095
vn 0.2721 0.6332 -0.7246
vn 0.3255 0.5882 -0.7403
vn 0.2768 0.7083 -0.6494
vn 0.2341 0.7421 -0.6281
vn 0.1618 0.8755 -0.4553
vn 0.1268 0.8921 -0.4337
vn 0.0665 0.9380 -0.3403
vn 0.0161 0.9497 -0.3129
vn -0.0431 0.9750 -0.2179
vn -0.1173 0.9753 -0.1869
vn -0.1689 0.9806 -0.0996
vn -0.2872 0.9549 -0.0756
vn -0.5491 0.8343 -0.0500
vn -0.6040 0.7911 0.0968
vn -0.3197 0.9474 -0.0148
vn 0.2885 0.3320 0.8981
vn -0.8918 0.3880 -0.2328
vn -0.9541 0.2870 -0.0861
vn -0.8464 0.5101 -0.1530
vn -0.8891 0.4488 -0.0897
vn -0.7635 0.6332 -0.1266
vn -0.8039 0.5883 -0.0882
vn -0.6610 0.7421 -0.1113
vn -0.7008 0.7083 -0.0850
vn -0.5407 0.8352 -0.1002
vn -0.5799 0.8106 -0.0811
vn -0.4752 0.8755 -0.0876
vn -0.4390 0.8921 -0.1071
vn -0.3280 0.9380 -0.1126
vn -0.2790 0.9497 -0.1424
vn -0.1672 0.9750 -0.1463
vn -0.1032 0.9753 -0.1951
vn -0.0018 0.9806 -0.1961
vn 0.0781 0.9549 -0.2865
vn 0.1470 0.9474 -0.2842
vn 0.2312 0.8343 -0.5006
vn 0.3858 0.7911 -0.4747
vn -0.5407 0.8352 0.1002
vn -0.5799 0.8106 0.0811
vn 0.6402 0.3575 0.6799
vn -0.8918 0.3880 0.2328
vn -0.9541 0.2870 0.0861
vn -0.8891 0.4488 0.0897
vn -0.8464 0.5101 0.1530
vn -0.7635 0.6332 0.1266
vn -0.8039 0.5882 0.0882
vn -0.7008 0.7083 0.0850
vn -0.6610 0.7421 0.1113
vn -0.4752 0.8755 0.0876
vn -0.4390 0.8921 0.1071
vn -0.3280 0.9380 0.1126
vn -0.2790 0.9497 0.1424
vn -0.1672 0.9750 0.1463
vn -0.1032 0.9753 0.1951
vn -0.0018 0.9806 0.1961
vn 0.0781 0.9549 0.2865
vn 0.2312 0.8343 0.5006
vn 0.3858 0.7911 0.4747
vn 0.1470 0.9474 0.2842
vn -0.9430 0.2853 -0.1712
vn 0.2443 0.3880 0.8887
vn 0.4025 0.2870 0.8693
vn 0.2907 0.5101 0.8095
vn 0.3668 0.4488 0.8149
vn 0.2721 0.6332 0.7246
vn 0.3255 0.5883 0.7403
vn 0.2341 0.7421 0.6281
vn 0.2768 0.7083 0.6494
vn 0.1836 0.8352 0.5184
vn 0.2198 0.8106 0.5428
vn 0.1618 0.8755 0.4553
vn 0.1268 0.8921 0.4337
vn 0.0665 0.9380 0.3403
vn 0.0161 0.9497 0.3129
vn -0.0431 0.9750 0.2179
vn -0.1173 0.9753 0.1869
vn -0.1689 0.9806 0.0996
vn -0.2872 0.9549 0.0756
vn -0.3197 0.9474 0.0148
vn -0.5491 0.8343 0.0500
vn -0.6040 0.7911 -0.0968
vn 0.3572 0.8352 0.4182
vn 0.3602 0.8106 0.4617
vn -0.9430 0.2853 0.1712
vn 0.6475 0.3880 0.6559
vn 0.5516 0.2870 0.7832
vn 0.5223 0.4488 0.7251
vn 0.5557 0.5101 0.6565
vn 0.4914 0.6332 0.5979
vn 0.4783 0.5883 0.6520
vn 0.4240 0.7083 0.5644
vn 0.4269 0.7421 0.5168
vn 0.3134 0.8755 0.3678
vn 0.3122 0.8921 0.3266
vn 0.2615 0.9380 0.2278
vn 0.2629 0.9497 0.1704
vn 0.2102 0.9750 0.0716
vn 0.2205 0.9753 -0.0081
vn 0.1707 0.9806 -0.0965
vn 0.2090 0.9549 -0.2109
vn 0.3179 0.8343 -0.4505
vn 0.2182 0.7911 -0.5715
vn 0.1726 0.9474 -0.2695
s 0
f 2//1 1//1 14//1
f 14//2 15//2 2//2
f 2//3 15//3 3//3
f 15//4 16//4 3//4
f 3//5 16//5 4//5
f 4//6 16//6 17//6
f 5//7 4//7 17//7
f 5//8 17//8 18//8
f 6//9 5//9 18//9
f 6//10 18//10 19//10
f 7//11 6//11 19//11
f 7//12 19//12 24//12
f 8//13 7//13 24//13
f 8//14 24//14 23//14
f 9//15 8//15 23//15
f 22//16 9//16 23//16
f 9//17 22//17 10//17
f 10//18 22//18 21//18
f 11//19 10//19 21//19
f 20//20 11//20 21//20
f 12//21 11//21 20//21
f 13//22 12//22 20//22
f 33//23 6//23 35//23
f 7//24 35//24 6//24
f 2//25 25//25 1//25
f 27//26 25//26 2//26
f 2//27 3//27 27//27
f 4//28 29//28 3//28
f 27//29 3//29 29//29
f 29//30 4//30 31//30
f 5//31 31//31 4//31
f 6//32 33//32 5//32
f 31//33 5//33 33//33
f 35//34 7//34 34//34
f 8//35 34//35 7//35
f 34//36 8//36 32//36
f 9//37 32//37 8//37
f 9//38 30//38 32//38
f 9//39 10//39 30//39
f 30//40 10//40 28//40
f 11//41 28//41 10//41
f 12//42 26//42 11//42
f 13//43 26//43 12//43
f 28//44 11//44 26//44
f 70//45 1//45 82//45
f 48//46 49//46 36//46
f 36//47 49//47 37//47
f 49//48 50//48 37//48
f 37//49 50//49 38//49
f 38//50 50//50 51//50
f 39//51 38//51 51//51
f 39//52 51//52 52//52
f 40//53 39//53 52//53
f 40//54 52//54 53//54
f 41//55 40//55 53//55
f 41//56 53//56 58//56
f 42//57 41//57 58//57
f 42//58 58//58 57//58
f 43//59 42//59 57//59
f 56//60 43//60 57//60
f 43//61 56//61 44//61
f 44//62 56//62 55//62
f 45//63 44//63 55//63
f 54//64 45//64 55//64
f 46//65 45//65 54//65
f 47//66 46//66 54//66
f 67//67 40//67 69//67
f 41//68 69//68 40//68
f 1//69 70//69 93//69
f 61//70 59//70 36//70
f 36//71 37//71 61//71
f 38//72 63//72 37//72
f 61//73 37//73 63//73
f 63//74 38//74 65//74
f 39//75 65//75 38//75
f 40//76 67//76 39//76
f 65//77 39//77 67//77
f 69//78 41//78 68//78
f 42//79 68//79 41//79
f 68//80 42//80 66//80
f 43//81 66//81 42//81
f 43//82 64//82 66//82
f 43//83 44//83 64//83
f 64//84 44//84 62//84
f 45//85 62//85 44//85
f 46//86 60//86 45//86
f 47//87 60//87 46//87
f 62//88 45//88 60//88
f 1//89 48//89 36//89
f 82//90 83//90 70//90
f 70//91 83//91 71//91
f 83//92 84//92 71//92
f 71//93 84//93 72//93
f 72//94 84//94 85//94
f 73//95 72//95 85//95
f 73//96 85//96 86//96
f 74//97 73//97 86//97
f 74//98 86//98 87//98
f 75//99 74//99 87//99
f 75//100 87//100 92//100
f 76//101 75//101 92//101
f 76//102 92//102 91//102
f 77//103 76//103 91//103
f 90//104 77//104 91//104
f 77//105 90//105 78//105
f 78//106 90//106 89//106
f 79//107 78//107 89//107
f 88//108 79//108 89//108
f 80//109 79//109 88//109
f 81//110 80//110 88//110
f 101//111 74//111 103//111
f 75//112 103//112 74//112
f 36//113 59//113 1//113
f 95//114 93//114 70//114
f 70//115 71//115 95//115
f 72//116 97//116 71//116
f 95//117 71//117 97//117
f 97//118 72//118 99//118
f 73//119 99//119 72//119
f 74//120 101//120 73//120
f 99//121 73//121 101//121
f 103//122 75//122 102//122
f 76//123 102//123 75//123
f 102//124 76//124 100//124
f 77//125 100//125 76//125
f 77//126 98//126 100//126
f 77//127 78//127 98//127
f 98//128 78//128 96//128
f 79//129 96//129 78//129
f 80//130 94//130 79//130
f 81//131 94//131 80//131
f 96//132 79//132 94//132
