# Blender 4.5.4 LTS
# www.blender.org
o Cube
v 0.150000 0.200000 0.000000
v 0.150000 -0.200000 0.000000
v 0.400000 -0.000000 0.050000
v 0.400000 -0.000000 -0.050000
v -0.100000 -0.000000 -0.050000
v -0.100000 -0.000000 0.050000
v -0.400000 -0.200000 0.000000
v -0.400000 0.200000 0.000000
vn -0.1644 -0.0000 0.9864
vn 0.6247 -0.7809 -0.0000
vn 0.1961 -0.0000 0.9806
vn -0.6247 -0.7809 -0.0000
vn -0.1644 -0.0000 -0.9864
vn 0.5547 0.8321 -0.0000
vn -0.6247 0.7809 -0.0000
vn 0.6247 0.7809 -0.0000
vn 0.5547 -0.8321 -0.0000
vn -0.1961 -0.0000 0.9806
vn -0.1961 -0.0000 -0.9806
vn 0.1961 -0.0000 -0.9806
vt 0.000000 0.000000
s 0
f 6/1/1 8/1/1 7/1/1
f 4/1/2 3/1/2 2/1/2
f 6/1/3 2/1/3 1/1/3
f 2/1/4 6/1/4 5/1/4
f 7/1/5 8/1/5 5/1/5
f 8/1/6 6/1/6 5/1/6
f 5/1/7 6/1/7 1/1/7
f 1/1/8 3/1/8 4/1/8
f 7/1/9 5/1/9 6/1/9
f 1/1/10 2/1/10 3/1/10
f 2/1/11 1/1/11 4/1/11
f 1/1/12 2/1/12 5/1/12
