# Blender 4.5.3 LTS
# www.blender.org
o Plane.003
v 1.697454 -0.320032 -0.250000
v 0.757761 0.021988 -0.250000
v 0.931408 -0.962824 -0.250000
v 1.458558 0.777888 -0.250000
v 0.518865 1.119908 -0.250000
v 0.692512 0.135096 -0.250000
v 0.786483 0.100899 -0.250000
v 1.726175 -0.241122 -0.250000
v 1.552529 0.743690 -0.250000
v 2.586189 0.367464 -0.250000
v 1.646496 0.709484 -0.250000
v 1.820143 -0.275328 -0.250000
v 0.931408 -0.962824 0.250000
v 0.757762 0.021988 0.250000
v 1.697454 -0.320032 0.250000
v 0.692512 0.135096 0.250000
v 0.518865 1.119908 0.250000
v 1.458558 0.777888 0.250000
v 1.552529 0.743690 0.250000
v 1.726175 -0.241122 0.250000
v 0.786483 0.100899 0.250000
v 1.820143 -0.275328 0.250000
v 1.646496 0.709484 0.250000
v 2.586189 0.367464 0.250000
vn -0.0000 -0.0000 -1.0000
vn -0.0000 -0.0000 1.0000
vn -0.6428 0.7660 -0.0000
vn -0.3420 -0.9397 -0.0000
vn -0.9848 -0.1736 -0.0000
vn 0.6428 -0.7660 -0.0000
vn 0.3420 0.9397 -0.0000
vn 0.9848 0.1736 -0.0000
vt 0.000000 0.000000
s 0
f 2/1/1 1/1/1 3/1/1
f 5/1/1 4/1/1 6/1/1
f 8/1/1 7/1/1 9/1/1
f 11/1/1 10/1/1 12/1/1
f 14/1/2 13/1/2 15/1/2
f 17/1/2 16/1/2 18/1/2
f 20/1/2 19/1/2 21/1/2
f 23/1/2 22/1/2 24/1/2
f 9/1/3 7/1/3 21/1/3 19/1/3
f 7/1/4 8/1/4 20/1/4 21/1/4
f 2/1/5 3/1/5 13/1/5 14/1/5
f 11/1/5 12/1/5 22/1/5 23/1/5
f 3/1/6 1/1/6 15/1/6 13/1/6
f 12/1/6 10/1/6 24/1/6 22/1/6
f 5/1/5 6/1/5 16/1/5 17/1/5
f 1/1/7 2/1/7 14/1/7 15/1/7
f 10/1/7 11/1/7 23/1/7 24/1/7
f 6/1/6 4/1/6 18/1/6 16/1/6
f 4/1/7 5/1/7 17/1/7 18/1/7
f 8/1/8 9/1/8 19/1/8 20/1/8
