# Blender 4.5.3 LTS
# www.blender.org
o Plane.002
v -0.557808 0.500817 -0.250000
v -1.497501 0.842837 -0.250000
v -1.323854 -0.141975 -0.250000
v 0.330927 1.188312 -0.250000
v -0.608766 1.530333 -0.250000
v -0.435119 0.545521 -0.250000
v -1.468780 0.921747 -0.250000
v -0.529087 0.579727 -0.250000
v -0.702734 1.564539 -0.250000
v -0.796705 1.598737 -0.250000
v -1.736397 1.940757 -0.250000
v -1.562750 0.955945 -0.250000
v -1.323854 -0.141975 0.250000
v -1.497501 0.842837 0.250000
v -0.557808 0.500817 0.250000
v -0.435119 0.545521 0.250000
v -0.608766 1.530333 0.250000
v 0.330927 1.188312 0.250000
v -0.702734 1.564539 0.250000
v -0.529087 0.579727 0.250000
v -1.468780 0.921747 0.250000
v -1.562750 0.955945 0.250000
v -1.736397 1.940757 0.250000
v -0.796704 1.598737 0.250000
vn -0.0000 -0.0000 -1.0000
vn -0.0000 -0.0000 1.0000
vn 0.6428 -0.7660 -0.0000
vn 0.3420 0.9397 -0.0000
vn -0.9848 -0.1736 -0.0000
vn 0.9848 0.1736 -0.0000
vn -0.6428 0.7660 -0.0000
vn -0.3420 -0.9397 -0.0000
vt 0.000000 0.000000
s 0
f 2/1/1 1/1/1 3/1/1
f 5/1/1 4/1/1 6/1/1
f 8/1/1 7/1/1 9/1/1
f 11/1/1 10/1/1 12/1/1
f 14/1/2 13/1/2 15/1/2
f 17/1/2 16/1/2 18/1/2
f 20/1/2 19/1/2 21/1/2
f 23/1/2 22/1/2 24/1/2
f 3/1/3 1/1/3 15/1/3 13/1/3
f 1/1/4 2/1/4 14/1/4 15/1/4
f 11/1/5 12/1/5 22/1/5 23/1/5
f 12/1/3 10/1/3 24/1/3 22/1/3
f 5/1/5 6/1/5 16/1/5 17/1/5
f 10/1/4 11/1/4 23/1/4 24/1/4
f 6/1/3 4/1/3 18/1/3 16/1/3
f 4/1/4 5/1/4 17/1/4 18/1/4
f 8/1/6 9/1/6 19/1/6 20/1/6
f 9/1/7 7/1/7 21/1/7 19/1/7
f 7/1/8 8/1/8 20/1/8 21/1/8
f 2/1/5 3/1/5 13/1/5 14/1/5
