# Blender 4.5.3 LTS
# www.blender.org
o novice_engineer.svg.003
v 0.273500 0.482856 -0.000000
v 0.272519 0.484729 -0.000000
v 0.273653 0.483499 -0.000000
v 0.276623 0.479550 -0.000000
v 0.281148 0.473266 -0.000000
v 0.286950 0.465030 -0.000000
v 0.293749 0.455226 -0.000000
v 0.301264 0.444238 -0.000000
v 0.309217 0.432449 -0.000000
v 0.317328 0.420244 -0.000000
v 0.325317 0.408006 -0.000000
v 0.332905 0.396119 -0.000000
v 0.340999 0.383908 -0.000000
v 0.342013 0.388835 -0.000000
v 0.341870 0.394276 -0.000000
v 0.341316 0.401340 -0.000000
v 0.340365 0.409755 -0.000000
v 0.339032 0.419248 -0.000000
v 0.337333 0.429549 -0.000000
v 0.335283 0.440385 -0.000000
v 0.332897 0.451484 -0.000000
v 0.330192 0.462574 -0.000000
v 0.327181 0.473383 -0.000000
v 0.323157 0.485376 -0.000000
v 0.318359 0.497095 -0.000000
v 0.313036 0.508384 -0.000000
v 0.307440 0.519088 -0.000000
v 0.301822 0.529051 -0.000000
v 0.296433 0.538116 -0.000000
v 0.291524 0.546130 -0.000000
v 0.287347 0.552934 -0.000000
v 0.284152 0.558375 -0.000000
v 0.355063 0.476050 -0.000000
v 0.361882 0.462736 -0.000000
v 0.368414 0.450665 -0.000000
v 0.374721 0.440357 -0.000000
v 0.380863 0.432332 -0.000000
v 0.382781 0.430325 -0.000000
v 0.383998 0.429328 -0.000000
v 0.384578 0.429535 -0.000000
v 0.384582 0.431140 -0.000000
v 0.384073 0.434336 -0.000000
v 0.383113 0.439319 -0.000000
v 0.381765 0.446282 -0.000000
v 0.380091 0.455419 -0.000000
v 0.378154 0.466924 -0.000000
v 0.376016 0.480992 -0.000000
v 0.373741 0.497816 -0.000000
v 0.371389 0.517591 -0.000000
v 0.371908 0.519532 -0.000000
v 0.374247 0.516721 -0.000000
v 0.378164 0.509948 -0.000000
v 0.383412 0.500001 -0.000000
v 0.389748 0.487669 -0.000000
v 0.396928 0.473738 -0.000000
v 0.404705 0.458999 -0.000000
v 0.412838 0.444238 -0.000000
v 0.421079 0.430245 -0.000000
v 0.429186 0.417808 -0.000000
v 0.436914 0.407715 -0.000000
v 0.444017 0.400755 -0.000000
v 0.445600 0.400041 -0.000000
v 0.446495 0.400806 -0.000000
v 0.446844 0.402911 -0.000000
v 0.446789 0.406217 -0.000000
v 0.446471 0.410584 -0.000000
v 0.446030 0.415873 -0.000000
v 0.445610 0.421945 -0.000000
v 0.445351 0.428660 -0.000000
v 0.445394 0.435880 -0.000000
v 0.185464 0.076828 -0.000000
v 0.209790 0.063770 -0.000000
v 0.232755 0.051944 -0.000000
v 0.254319 0.041171 -0.000000
v 0.274441 0.031271 -0.000000
v 0.293078 0.022064 -0.000000
v 0.310188 0.013370 -0.000000
v 0.325731 0.005010 -0.000000
v 0.339664 -0.003198 0.000000
v 0.351946 -0.011431 0.000000
v 0.362535 -0.019871 0.000000
v 0.371389 -0.028696 0.000000
v 0.374584 -0.031151 0.000000
v 0.375921 -0.029361 0.000000
v 0.375583 -0.023807 0.000000
v 0.373752 -0.014966 0.000000
v 0.370609 -0.003318 0.000000
v 0.366337 0.010657 -0.000000
v 0.361118 0.026481 -0.000000
v 0.355133 0.043674 -0.000000
v 0.348565 0.061758 -0.000000
v 0.341596 0.080253 -0.000000
v 0.334407 0.098680 -0.000000
v 0.327181 0.116559 -0.000000
v 0.318894 0.134980 -0.000000
v 0.309616 0.152983 -0.000000
v 0.299753 0.170335 -0.000000
v 0.289709 0.186801 -0.000000
v 0.279889 0.202150 -0.000000
v 0.270697 0.216146 -0.000000
v 0.262538 0.228557 -0.000000
v 0.255816 0.239150 -0.000000
v 0.250937 0.247689 -0.000000
v 0.248304 0.253943 -0.000000
v 0.248322 0.257677 -0.000000
v 0.251396 0.258657 -0.000000
v 0.254903 0.257621 -0.000000
v 0.259718 0.255258 -0.000000
v 0.265571 0.251745 -0.000000
v 0.272190 0.247254 -0.000000
v 0.279304 0.241961 -0.000000
v 0.286644 0.236040 -0.000000
v 0.293937 0.229665 -0.000000
v 0.300914 0.223010 -0.000000
v 0.307302 0.216250 -0.000000
v 0.312832 0.209559 -0.000000
v 0.317233 0.203111 -0.000000
v 0.320234 0.197082 -0.000000
v 0.323656 0.191663 -0.000000
v 0.324930 0.198361 -0.000000
v 0.324300 0.215135 -0.000000
v 0.322012 0.239945 -0.000000
v 0.318312 0.270750 -0.000000
v 0.313445 0.305510 -0.000000
v 0.307657 0.342185 -0.000000
v 0.301194 0.378733 -0.000000
v 0.294301 0.413115 -0.000000
v 0.287224 0.443290 -0.000000
v 0.280208 0.467217 -0.000000
v 0.388671 0.347072 -0.000000
v 0.387595 0.333873 -0.000000
v 0.387065 0.319976 -0.000000
v 0.387038 0.305251 -0.000000
v 0.387471 0.289566 -0.000000
v 0.388323 0.272788 -0.000000
v 0.389549 0.254787 -0.000000
v 0.391108 0.235430 -0.000000
v 0.392956 0.214587 -0.000000
v 0.395051 0.192126 -0.000000
v 0.397349 0.167914 -0.000000
v 0.399809 0.141821 -0.000000
v 0.402137 0.116464 -0.000000
v 0.404012 0.094718 -0.000000
v 0.405587 0.075894 -0.000000
v 0.407013 0.059299 -0.000000
v 0.408444 0.044244 -0.000000
v 0.410032 0.030038 -0.000000
v 0.411929 0.015989 -0.000000
v 0.414288 0.001407 -0.000000
v 0.417260 -0.014398 0.000000
v 0.420999 -0.032117 0.000000
v 0.425657 -0.052442 0.000000
v 0.431386 -0.076062 0.000000
v 0.433079 -0.080927 0.000000
v 0.435399 -0.085009 0.000000
v 0.438240 -0.088407 0.000000
v 0.441491 -0.091219 0.000000
v 0.445045 -0.093545 0.000000
v 0.448793 -0.095482 0.000000
v 0.452627 -0.097130 0.000000
v 0.456438 -0.098587 0.000000
v 0.460117 -0.099952 0.000000
v 0.463556 -0.101324 0.000000
v 0.466646 -0.102801 0.000000
v 0.469279 -0.104482 0.000000
v 0.473337 -0.106459 0.000000
v 0.475426 -0.104906 0.000000
v 0.475817 -0.100199 0.000000
v 0.474776 -0.092716 0.000000
v 0.472573 -0.082835 0.000000
v 0.469476 -0.070931 0.000000
v 0.465755 -0.057383 0.000000
v 0.461677 -0.042567 0.000000
v 0.457512 -0.026861 0.000000
v 0.453527 -0.010642 0.000000
v 0.449992 0.005714 -0.000000
v 0.447175 0.021827 -0.000000
v 0.443876 0.043938 -0.000000
v 0.441042 0.062717 -0.000000
v 0.438615 0.078834 -0.000000
v 0.436532 0.092958 -0.000000
v 0.434735 0.105758 -0.000000
v 0.433163 0.117901 -0.000000
v 0.431755 0.130058 -0.000000
v 0.430451 0.142897 -0.000000
v 0.429191 0.157087 -0.000000
v 0.427914 0.173296 -0.000000
v 0.426561 0.192194 -0.000000
v 0.425071 0.214449 -0.000000
v 0.424237 0.225982 -0.000000
v 0.423346 0.236239 -0.000000
v 0.422446 0.245420 -0.000000
v 0.421586 0.253722 -0.000000
v 0.420813 0.261344 -0.000000
v 0.420176 0.268486 -0.000000
v 0.419724 0.275344 -0.000000
v 0.419504 0.282118 -0.000000
v 0.419565 0.289006 -0.000000
v 0.419954 0.296207 -0.000000
v 0.420721 0.303918 -0.000000
v 0.421913 0.312339 -0.000000
v 0.422735 0.314967 -0.000000
v 0.424091 0.316074 -0.000000
v 0.425979 0.315916 -0.000000
v 0.428392 0.314748 -0.000000
v 0.431328 0.312826 -0.000000
v 0.434781 0.310405 -0.000000
v 0.438747 0.307740 -0.000000
v 0.443222 0.305088 -0.000000
v 0.448201 0.302703 -0.000000
v 0.453681 0.300841 -0.000000
v 0.459655 0.299757 -0.000000
v 0.466121 0.299708 -0.000000
v 0.474025 0.300192 -0.000000
v 0.480828 0.300293 -0.000000
v 0.486745 0.300112 -0.000000
v 0.491991 0.299755 -0.000000
v 0.496781 0.299322 -0.000000
v 0.501330 0.298918 -0.000000
v 0.505852 0.298646 -0.000000
v 0.510563 0.298608 -0.000000
v 0.515678 0.298908 -0.000000
v 0.521411 0.299649 -0.000000
v 0.527977 0.300934 -0.000000
v 0.535591 0.302866 -0.000000
v 0.539712 0.304075 -0.000000
v 0.543164 0.305197 -0.000000
v 0.546081 0.306265 -0.000000
v 0.548597 0.307310 -0.000000
v 0.550845 0.308363 -0.000000
v 0.552959 0.309457 -0.000000
v 0.555073 0.310624 -0.000000
v 0.557321 0.311894 -0.000000
v 0.559837 0.313301 -0.000000
v 0.562754 0.314875 -0.000000
v 0.566206 0.316649 -0.000000
v 0.570327 0.318654 -0.000000
v 0.571802 0.319707 -0.000000
v 0.571028 0.320394 -0.000000
v 0.568254 0.320796 -0.000000
v 0.563730 0.320993 -0.000000
v 0.557707 0.321068 -0.000000
v 0.550433 0.321101 -0.000000
v 0.542159 0.321174 -0.000000
v 0.533135 0.321367 -0.000000
v 0.523612 0.321763 -0.000000
v 0.513838 0.322441 -0.000000
v 0.504065 0.323483 -0.000000
v 0.494541 0.324970 -0.000000
v 0.487917 0.326227 -0.000000
v 0.482283 0.327345 -0.000000
v 0.477445 0.328369 -0.000000
v 0.473209 0.329344 -0.000000
v 0.469380 0.330314 -0.000000
v 0.465766 0.331325 -0.000000
v 0.462171 0.332421 -0.000000
v 0.458402 0.333648 -0.000000
v 0.454265 0.335050 -0.000000
v 0.449565 0.336672 -0.000000
v 0.444109 0.338560 -0.000000
v 0.437702 0.340758 -0.000000
v 0.431771 0.343115 -0.000000
v 0.426014 0.345955 -0.000000
v 0.420487 0.349092 -0.000000
v 0.415247 0.352337 -0.000000
v 0.410348 0.355503 -0.000000
v 0.405848 0.358402 -0.000000
v 0.401802 0.360848 -0.000000
v 0.398265 0.362652 -0.000000
v 0.395294 0.363627 -0.000000
v 0.392945 0.363586 -0.000000
v 0.391274 0.362341 -0.000000
v 0.390336 0.359705 -0.000000
v -0.248133 0.219243 -0.000000
v -0.239463 0.221013 -0.000000
v -0.232226 0.222314 -0.000000
v -0.226077 0.223174 -0.000000
v -0.220673 0.223621 -0.000000
v -0.215672 0.223685 -0.000000
v -0.210730 0.223394 -0.000000
v -0.205505 0.222776 -0.000000
v -0.199652 0.221860 -0.000000
v -0.192828 0.220674 -0.000000
v -0.184692 0.219247 -0.000000
v -0.174898 0.217607 -0.000000
v -0.131121 0.208472 -0.000000
v -0.087615 0.196051 -0.000000
v -0.045150 0.181268 -0.000000
v -0.004498 0.165048 -0.000000
v 0.033572 0.148315 -0.000000
v 0.068287 0.131993 -0.000000
v 0.098877 0.117006 -0.000000
v 0.124572 0.104279 -0.000000
v 0.144600 0.094736 -0.000000
v 0.298967 0.543826 -0.000000
v 0.309748 0.531743 -0.000000
v 0.316351 0.524361 -0.000000
v 0.319813 0.520492 -0.000000
v 0.322971 0.516375 -0.000000
v 0.326268 0.512243 -0.000000
v 0.332641 0.504493 -0.000000
v 0.343126 0.491935 -0.000000
v 0.445234 0.443700 -0.000000
v 0.445349 0.448945 -0.000000
v 0.445669 0.452792 -0.000000
v 0.446256 0.454777 -0.000000
v 0.447175 0.454437 -0.000000
v 0.451375 0.448079 -0.000000
v 0.454616 0.443070 -0.000000
v 0.457072 0.439196 -0.000000
v 0.458917 0.436239 -0.000000
v 0.460323 0.433984 -0.000000
v 0.461464 0.432214 -0.000000
v 0.462512 0.430714 -0.000000
v 0.463642 0.429268 -0.000000
v 0.465026 0.427660 -0.000000
v 0.466838 0.425674 -0.000000
v 0.469250 0.423093 -0.000000
v 0.472437 0.419702 -0.000000
v 0.478534 0.412800 -0.000000
v 0.483715 0.406325 -0.000000
v 0.488211 0.400311 -0.000000
v 0.492249 0.394791 -0.000000
v 0.496059 0.389796 -0.000000
v 0.499870 0.385361 -0.000000
v 0.503911 0.381518 -0.000000
v 0.508412 0.378300 -0.000000
v 0.513601 0.375740 -0.000000
v 0.519708 0.373871 -0.000000
v 0.526962 0.372725 -0.000000
v 0.535591 0.372336 -0.000000
v 0.554152 0.372269 -0.000000
v 0.569084 0.372094 -0.000000
v 0.580836 0.371847 -0.000000
v 0.589858 0.371564 -0.000000
v 0.596599 0.371280 -0.000000
v 0.601509 0.371033 -0.000000
v 0.605038 0.370858 -0.000000
v 0.607635 0.370792 -0.000000
v 0.609749 0.370870 -0.000000
v 0.611830 0.371130 -0.000000
v 0.614328 0.371606 -0.000000
v 0.617692 0.372336 -0.000000
v 0.630391 0.375955 -0.000000
v -0.301519 0.218588 -0.000000
v -0.300389 0.216532 -0.000000
v -0.298030 0.214681 -0.000000
v -0.294658 0.213116 -0.000000
v -0.290488 0.211919 -0.000000
v -0.285734 0.211173 -0.000000
v -0.280613 0.210960 -0.000000
v -0.275337 0.211361 -0.000000
v -0.270123 0.212461 -0.000000
v -0.265186 0.214339 -0.000000
v 0.644691 0.386190 -0.000000
v 0.649381 0.390875 -0.000000
v 0.653924 0.395516 -0.000000
v 0.658358 0.399783 -0.000000
v 0.662719 0.403350 -0.000000
v 0.667046 0.405888 -0.000000
v 0.671374 0.407071 -0.000000
v 0.675002 0.407627 -0.000000
v 0.675241 0.408394 -0.000000
v 0.672464 0.409434 -0.000000
v 0.667047 0.410813 -0.000000
v 0.659362 0.412596 -0.000000
v 0.649783 0.414847 -0.000000
v 0.638685 0.417630 -0.000000
v 0.626441 0.421011 -0.000000
v 0.613425 0.425055 -0.000000
v 0.600011 0.429825 -0.000000
v 0.586573 0.435387 -0.000000
v 0.573484 0.441806 -0.000000
v 0.546094 0.458071 -0.000000
v 0.524013 0.474194 -0.000000
v 0.506195 0.490193 -0.000000
v 0.491594 0.506083 -0.000000
v 0.479163 0.521881 -0.000000
v 0.467858 0.537603 -0.000000
v 0.456632 0.553267 -0.000000
v 0.444438 0.568887 -0.000000
v 0.430232 0.584481 -0.000000
v 0.412966 0.600065 -0.000000
v 0.391596 0.615656 -0.000000
v 0.365074 0.631270 -0.000000
v 0.354557 0.636570 -0.000000
v 0.343986 0.641357 -0.000000
v 0.333334 0.645539 -0.000000
v 0.322573 0.649023 -0.000000
v 0.311677 0.651718 -0.000000
v 0.300617 0.653532 -0.000000
v 0.289366 0.654372 -0.000000
v 0.277897 0.654146 -0.000000
v 0.266183 0.652762 -0.000000
v 0.254195 0.650128 -0.000000
v 0.241907 0.646153 -0.000000
v 0.229291 0.640743 -0.000000
v 0.195619 0.624876 -0.000000
v 0.166502 0.611439 -0.000000
v 0.141092 0.599806 -0.000000
v 0.118537 0.589354 -0.000000
v 0.097986 0.579458 -0.000000
v 0.078589 0.569496 -0.000000
v 0.059494 0.558844 -0.000000
v 0.039851 0.546876 -0.000000
v 0.018809 0.532970 -0.000000
v -0.004483 0.516502 -0.000000
v -0.030876 0.496848 -0.000000
v -0.061220 0.473383 -0.000000
v -0.093712 0.447553 -0.000000
v -0.123402 0.423159 -0.000000
v -0.150450 0.400030 -0.000000
v -0.175015 0.377996 -0.000000
v -0.197255 0.356888 -0.000000
v -0.217330 0.336535 -0.000000
v -0.235398 0.316767 -0.000000
v -0.251619 0.297415 -0.000000
v -0.266152 0.278309 -0.000000
v -0.279154 0.259279 -0.000000
v -0.290787 0.240154 -0.000000
v -0.301207 0.220765 -0.000000
vn -0.0000 -0.0000 1.0000
vn -0.0000 -0.0000 -1.0000
s 0
f 130//1 131//1 265//1
f 131//1 132//1 202//1
f 198//1 134//1 197//1
f 132//1 133//1 201//1
f 133//1 134//1 199//1
f 195//1 135//1 136//1
f 134//1 135//1 197//1
f 194//1 136//1 193//1
f 136//1 137//1 192//1
f 137//1 138//1 190//1
f 136//1 192//1 193//1
f 138//1 139//1 189//1
f 139//1 140//1 187//1
f 139//1 187//1 188//1
f 140//1 141//1 186//1
f 181//1 143//1 144//1
f 136//1 194//1 195//1
f 134//1 198//1 199//1
f 135//1 195//1 196//1
f 135//1 196//1 197//1
f 143//1 181//1 182//1
f 143//1 182//1 142//1
f 141//1 142//1 184//1
f 181//1 144//1 180//1
f 144//1 145//1 180//1
f 179//1 145//1 146//1
f 180//1 145//1 179//1
f 178//1 146//1 147//1
f 178//1 147//1 177//1
f 147//1 148//1 177//1
f 148//1 149//1 177//1
f 149//1 150//1 176//1
f 150//1 151//1 175//1
f 149//1 176//1 177//1
f 151//1 152//1 174//1
f 152//1 153//1 172//1
f 152//1 173//1 174//1
f 153//1 154//1 171//1
f 154//1 155//1 171//1
f 155//1 156//1 171//1
f 156//1 157//1 171//1
f 157//1 158//1 171//1
f 158//1 159//1 171//1
f 159//1 160//1 170//1
f 160//1 161//1 170//1
f 161//1 162//1 170//1
f 173//1 152//1 172//1
f 146//1 178//1 179//1
f 270//1 271//1 272//1
f 268//1 269//1 273//1
f 269//1 270//1 273//1
f 266//1 267//1 130//1
f 267//1 268//1 130//1
f 265//1 266//1 130//1
f 270//1 272//1 273//1
f 130//1 268//1 273//1
f 264//1 265//1 131//1
f 264//1 131//1 202//1
f 263//1 264//1 203//1
f 262//1 263//1 203//1
f 264//1 202//1 203//1
f 259//1 260//1 207//1
f 260//1 261//1 205//1
f 204//1 261//1 262//1
f 258//1 259//1 208//1
f 261//1 204//1 205//1
f 241//1 242//1 235//1
f 242//1 243//1 233//1
f 234//1 242//1 233//1
f 239//1 240//1 237//1
f 240//1 241//1 236//1
f 237//1 238//1 239//1
f 236//1 237//1 240//1
f 242//1 234//1 235//1
f 243//1 244//1 229//1
f 235//1 236//1 241//1
f 244//1 245//1 226//1
f 233//1 243//1 232//1
f 243//1 230//1 231//1
f 231//1 232//1 243//1
f 230//1 243//1 229//1
f 245//1 246//1 224//1
f 228//1 229//1 244//1
f 226//1 227//1 244//1
f 227//1 228//1 244//1
f 224//1 225//1 245//1
f 225//1 226//1 245//1
f 222//1 223//1 247//1
f 223//1 224//1 246//1
f 247//1 223//1 246//1
f 220//1 221//1 247//1
f 221//1 222//1 247//1
f 218//1 219//1 248//1
f 219//1 220//1 248//1
f 217//1 218//1 249//1
f 249//1 218//1 248//1
f 247//1 248//1 220//1
f 216//1 217//1 249//1
f 215//1 216//1 250//1
f 212//1 213//1 255//1
f 213//1 214//1 253//1
f 253//1 214//1 252//1
f 216//1 249//1 250//1
f 211//1 212//1 255//1
f 214//1 215//1 251//1
f 215//1 250//1 251//1
f 210//1 211//1 256//1
f 213//1 253//1 254//1
f 208//1 209//1 258//1
f 209//1 210//1 257//1
f 206//1 207//1 260//1
f 207//1 208//1 259//1
f 256//1 211//1 255//1
f 213//1 254//1 255//1
f 214//1 251//1 252//1
f 205//1 206//1 260//1
f 210//1 256//1 257//1
f 209//1 257//1 258//1
f 203//1 204//1 262//1
f 176//1 150//1 175//1
f 162//1 163//1 169//1
f 175//1 151//1 174//1
f 163//1 164//1 169//1
f 164//1 165//1 168//1
f 165//1 166//1 167//1
f 168//1 165//1 167//1
f 168//1 169//1 164//1
f 169//1 170//1 162//1
f 170//1 171//1 159//1
f 171//1 172//1 153//1
f 201//1 202//1 132//1
f 200//1 201//1 133//1
f 199//1 200//1 133//1
f 191//1 192//1 137//1
f 191//1 137//1 190//1
f 189//1 190//1 138//1
f 188//1 189//1 139//1
f 186//1 187//1 140//1
f 185//1 186//1 141//1
f 184//1 185//1 141//1
f 183//1 184//1 142//1
f 182//1 183//1 142//1
f 129//1 1//1 128//1
f 128//1 105//1 127//1
f 105//1 126//1 127//1
f 126//1 105//1 125//1
f 108//1 109//1 124//1
f 125//1 106//1 124//1
f 124//1 109//1 123//1
f 111//1 112//1 123//1
f 123//1 112//1 122//1
f 122//1 115//1 121//1
f 121//1 117//1 120//1
f 120//1 118//1 119//1
f 117//1 118//1 120//1
f 123//1 110//1 111//1
f 122//1 114//1 115//1
f 124//1 107//1 108//1
f 124//1 106//1 107//1
f 122//1 113//1 114//1
f 121//1 116//1 117//1
f 121//1 115//1 116//1
f 13//1 14//1 12//1
f 12//1 17//1 11//1
f 15//1 16//1 12//1
f 15//1 12//1 14//1
f 17//1 12//1 16//1
f 19//1 10//1 18//1
f 18//1 11//1 17//1
f 10//1 11//1 18//1
f 21//1 9//1 20//1
f 20//1 10//1 19//1
f 23//1 7//1 22//1
f 22//1 8//1 21//1
f 25//1 5//1 24//1
f 24//1 6//1 23//1
f 5//1 6//1 24//1
f 27//1 2//1 26//1
f 26//1 4//1 25//1
f 4//1 5//1 25//1
f 29//1 2//1 28//1
f 28//1 2//1 27//1
f 3//1 4//1 26//1
f 31//1 2//1 30//1
f 30//1 2//1 29//1
f 26//1 2//1 3//1
f 22//1 7//1 8//1
f 20//1 9//1 10//1
f 32//1 2//1 31//1
f 21//1 8//1 9//1
f 297//1 50//1 296//1
f 296//1 385//1 295//1
f 297//1 298//1 50//1
f 23//1 6//1 7//1
f 298//1 299//1 50//1
f 122//1 112//1 113//1
f 123//1 109//1 110//1
f 125//1 105//1 106//1
f 128//1 1//1 105//1
f 300//1 50//1 299//1
f 300//1 49//1 50//1
f 302//1 49//1 301//1
f 301//1 49//1 300//1
f 35//1 46//1 34//1
f 34//1 47//1 33//1
f 35//1 45//1 46//1
f 36//1 44//1 35//1
f 44//1 45//1 35//1
f 37//1 43//1 36//1
f 39//1 41//1 38//1
f 38//1 41//1 37//1
f 41//1 39//1 40//1
f 43//1 37//1 42//1
f 42//1 37//1 41//1
f 44//1 36//1 43//1
f 33//1 48//1 302//1
f 46//1 47//1 34//1
f 47//1 48//1 33//1
f 48//1 49//1 302//1
f 295//1 386//1 32//1
f 50//1 384//1 296//1
f 384//1 385//1 296//1
f 55//1 379//1 54//1
f 54//1 379//1 53//1
f 57//1 305//1 306//1
f 57//1 306//1 56//1
f 56//1 306//1 55//1
f 57//1 58//1 303//1
f 59//1 69//1 58//1
f 69//1 70//1 58//1
f 61//1 65//1 60//1
f 60//1 67//1 59//1
f 65//1 66//1 60//1
f 63//1 61//1 62//1
f 65//1 61//1 64//1
f 64//1 61//1 63//1
f 67//1 60//1 66//1
f 303//1 304//1 57//1
f 58//1 70//1 303//1
f 304//1 305//1 57//1
f 68//1 59//1 67//1
f 53//1 380//1 52//1
f 68//1 69//1 59//1
f 52//1 381//1 51//1
f 306//1 378//1 55//1
f 55//1 378//1 379//1
f 51//1 381//1 50//1
f 379//1 380//1 53//1
f 307//1 377//1 306//1
f 380//1 381//1 52//1
f 101//1 294//1 100//1
f 100//1 71//1 99//1
f 72//1 96//1 97//1
f 99//1 71//1 98//1
f 98//1 71//1 97//1
f 73//1 74//1 94//1
f 96//1 73//1 95//1
f 74//1 75//1 93//1
f 95//1 73//1 94//1
f 94//1 74//1 93//1
f 76//1 91//1 92//1
f 93//1 75//1 92//1
f 77//1 90//1 91//1
f 90//1 78//1 89//1
f 89//1 79//1 88//1
f 88//1 80//1 87//1
f 79//1 80//1 88//1
f 87//1 81//1 86//1
f 86//1 81//1 85//1
f 85//1 82//1 84//1
f 84//1 82//1 83//1
f 82//1 85//1 81//1
f 91//1 76//1 77//1
f 90//1 77//1 78//1
f 92//1 75//1 76//1
f 97//1 71//1 72//1
f 78//1 79//1 89//1
f 81//1 87//1 80//1
f 102//1 294//1 101//1
f 103//1 293//1 102//1
f 96//1 72//1 73//1
f 104//1 292//1 103//1
f 102//1 293//1 294//1
f 71//1 100//1 294//1
f 103//1 292//1 293//1
f 292//1 104//1 291//1
f 105//1 291//1 104//1
f 105//1 290//1 291//1
f 313//1 375//1 312//1
f 312//1 375//1 311//1
f 315//2 314//2 313//2
f 317//1 375//1 316//1
f 316//1 375//1 315//1
f 319//1 375//1 318//1
f 318//1 375//1 317//1
f 315//1 375//1 313//1
f 311//1 376//1 310//1
f 375//1 376//1 311//1
f 310//1 376//1 309//1
f 321//1 322//1 374//1
f 320//1 375//1 319//1
f 374//1 320//1 321//1
f 322//1 323//1 374//1
f 309//1 376//1 308//1
f 374//1 375//1 320//1
f 331//1 373//1 374//1
f 374//1 330//1 331//1
f 308//1 376//1 307//1
f 324//1 374//1 323//1
f 324//1 330//1 374//1
f 325//1 330//1 324//1
f 327//1 328//1 326//1
f 326//1 329//1 325//1
f 329//1 326//1 328//1
f 330//1 325//1 329//1
f 332//1 373//1 331//1
f 333//1 372//1 373//1
f 373//1 332//1 333//1
f 333//1 334//1 372//1
f 334//1 371//1 372//1
f 334//1 335//1 371//1
f 335//1 336//1 371//1
f 336//1 370//1 371//1
f 338//1 370//1 337//1
f 337//1 370//1 336//1
f 340//2 339//2 341//2
f 339//1 370//1 338//1
f 342//1 370//1 341//1
f 370//1 339//1 341//1
f 344//1 369//1 343//1
f 343//1 370//1 342//1
f 356//1 368//1 355//1
f 355//1 369//1 344//1
f 369//1 370//1 343//1
f 357//1 367//1 356//1
f 358//1 367//1 357//1
f 355//1 368//1 369//1
f 359//1 366//1 358//1
f 105//1 289//1 290//1
f 105//1 288//1 289//1
f 105//1 1//1 288//1
f 288//1 1//1 287//1
f 287//1 1//1 286//1
f 285//1 1//1 284//1
f 284//1 1//1 283//1
f 286//1 1//1 285//1
f 283//1 1//1 282//1
f 282//1 1//1 281//1
f 281//1 1//1 280//1
f 280//1 1//1 279//1
f 279//1 1//1 278//1
f 278//1 1//1 277//1
f 277//1 421//1 276//1
f 1//1 421//1 277//1
f 276//1 421//1 275//1
f 275//1 421//1 274//1
f 274//1 421//1 354//1
f 421//1 353//1 354//1
f 353//1 421//1 352//1
f 352//1 421//1 351//1
f 351//1 421//1 350//1
f 350//1 421//1 349//1
f 349//1 421//1 348//1
f 348//1 421//1 347//1
f 347//1 421//1 346//1
f 420//1 421//1 419//1
f 419//1 421//1 418//1
f 418//1 421//1 417//1
f 417//1 421//1 416//1
f 416//1 421//1 415//1
f 415//1 1//1 414//1
f 414//1 1//1 413//1
f 413//1 1//1 412//1
f 1//1 411//1 412//1
f 411//1 1//1 410//1
f 1//1 409//1 410//1
f 409//1 1//1 408//1
f 1//1 407//1 408//1
f 407//1 1//1 406//1
f 1//1 405//1 406//1
f 405//1 2//1 404//1
f 404//1 2//1 403//1
f 403//1 2//1 402//1
f 402//1 2//1 401//1
f 401//1 2//1 400//1
f 400//1 2//1 399//1
f 405//1 1//1 2//1
f 415//1 421//1 1//1
f 346//1 421//1 345//1
f 398//1 32//1 397//1
f 397//1 32//1 396//1
f 399//1 32//1 398//1
f 399//1 2//1 32//1
f 396//1 32//1 395//1
f 395//1 32//1 394//1
f 394//1 32//1 393//1
f 393//1 32//1 392//1
f 392//1 32//1 391//1
f 391//1 32//1 390//1
f 390//1 32//1 389//1
f 389//1 32//1 388//1
f 388//1 32//1 387//1
f 387//1 32//1 386//1
f 386//1 295//1 385//1
f 384//1 50//1 383//1
f 383//1 50//1 382//1
f 382//1 50//1 381//1
f 378//1 306//1 377//1
f 377//1 307//1 376//1
f 363//1 364//1 362//1
f 362//1 364//1 361//1
f 365//1 361//1 364//1
f 366//1 359//1 365//1
f 360//1 361//1 365//1
f 367//1 358//1 366//1
f 365//1 359//1 360//1
f 368//1 356//1 367//1
