<svg version="1.2" xmlns="http://www.w3.org/2000/svg" viewBox="0 0 256 256" width="256" height="256"><style>.a{fill:#fff}</style><path fill-rule="evenodd" class="a" d="m73.1 0c10.2 0 18.3 7.1 18.3 16v16h73.2v-16c0-8.9 8.1-16 18.3-16 10.1 0 18.2 7.1 18.2 16v16h27.5c15.1 0 27.4 10.8 27.4 24v24h-256v-24c0-13.3 12.3-24 27.4-24h27.5v-16c0-8.9 8.1-16 18.2-16zm-73.1 96h256v136c0 13.3-12.3 24-27.4 24h-201.2c-15.1 0-27.4-10.8-27.4-24zm36.6 40v16c0 4.4 4.1 8 9.1 8h18.3c5 0 9.1-3.6 9.1-8v-16c0-4.4-4.1-8-9.1-8h-18.3c-5 0-9.1 3.6-9.1 8zm73.1 0v16c0 4.4 4.1 8 9.2 8h18.2c5.1 0 9.2-3.6 9.2-8v-16c0-4.4-4.1-8-9.2-8h-18.2c-5.1 0-9.2 3.6-9.2 8zm82.3-8c-5 0-9.1 3.6-9.1 8v16c0 4.4 4.1 8 9.1 8h18.3c5 0 9.1-3.6 9.1-8v-16c0-4.4-4.1-8-9.1-8zm-155.4 72v16c0 4.4 4.1 8 9.1 8h18.3c5 0 9.1-3.6 9.1-8v-16c0-4.4-4.1-8-9.1-8h-18.3c-5 0-9.1 3.6-9.1 8zm82.2-8c-5 0-9.1 3.6-9.1 8v16c0 4.4 4.1 8 9.1 8h18.3c5.1 0 9.2-3.6 9.2-8v-16c0-4.4-4.1-8-9.2-8zm64 8v16c0 4.4 4.1 8 9.2 8h18.3c5 0 9.1-3.6 9.1-8v-16c0-4.4-4.1-8-9.1-8h-18.3c-5.1 0-9.2 3.6-9.2 8z"/></svg>