<svg version="1.2" xmlns="http://www.w3.org/2000/svg" viewBox="0 0 256 256" width="256" height="256"><style>.a{fill:#fff}</style><path fill-rule="evenodd" class="a" d="m97.3 0h61.4c10.3 0 19.5 7.5 22.7 18.7l5.2 17.9h37.4c17.6 0 32 16.4 32 36.5v146.3c0 20.2-14.4 36.6-32 36.6h-192c-17.7 0-32-16.4-32-36.6v-146.3c0-20.1 14.3-36.5 32-36.5h37.3l5.2-17.9c3.3-11.2 12.4-18.7 22.8-18.7zm94.7 84.2c0-3.6-2.6-6.5-5.7-6.5-1.5 0-2.9 0.7-4 1.9l-11.8 13.5c-11.3-12.8-26.6-20-42.5-20-16 0-31.3 7.3-42.6 20.3l-9.9 11.2c-4.7 5.3-4.6 14 0 19.4 4.7 5.4 12.3 5.4 17 0l9.8-11.3c6.8-7.8 16.1-12.1 25.7-12.1 9.5 0 18.7 4.3 25.5 12l-11.9 13.5c-1 1.2-1.6 2.9-1.6 4.6 0 3.5 2.5 6.4 5.6 6.4h38.4c4.4 0 8-4.1 8-9.1zm-128 124.2c0 3.6 2.5 6.5 5.6 6.5 1.5 0 3-0.7 4-1.9l11.9-13.5c11.3 12.8 26.6 20 42.5 20 16 0 31.3-7.3 42.6-20.3l9.8-11.2c4.7-5.3 4.7-14 0-19.4-4.6-5.4-12.2-5.4-16.9 0l-9.9 11.3c-6.8 7.8-16 12.1-25.6 12.1-9.6 0-18.7-4.3-25.5-12l11.8-13.5c1.1-1.2 1.7-2.9 1.7-4.6 0-3.5-2.6-6.4-5.7-6.4h-38.3c-4.4 0-8 4.1-8 9.1z"/></svg>