<svg version="1.2" xmlns="http://www.w3.org/2000/svg" viewBox="0 0 256 256" width="256" height="256"><style>.a{fill:#fff}</style><path fill-rule="evenodd" class="a" d="m144 137.3l36.6-36.7c6.3-6.2 16.4-6.2 22.7 0 6.2 6.3 6.2 16.4 0 22.7l-64 64c-6.3 6.2-16.4 6.2-22.7 0l-64-64c-6.2-6.3-6.2-16.4 0-22.7 6.3-6.2 16.4-6.2 22.7 0l36.7 36.7v-121.3c0-8.9 7.1-16 16-16 8.8 0 16 7.1 16 16zm-61.3 38.7l22.6 22.6c12.5 12.5 32.8 12.5 45.3 0l22.6-22.6h50.8c17.6 0 32 14.3 32 32v16c0 17.6-14.4 32-32 32h-192c-17.7 0-32-14.4-32-32v-16c0-17.7 14.3-32 32-32zm124.8 31.5c-2.3 2.2-3.6 5.3-3.6 8.5 0 3.1 1.3 6.2 3.6 8.4 2.2 2.3 5.3 3.6 8.4 3.6 3.2 0 6.3-1.3 8.5-3.6 2.3-2.2 3.5-5.3 3.5-8.4 0-3.2-1.2-6.3-3.5-8.5-2.2-2.3-5.3-3.5-8.5-3.5-3.1 0-6.2 1.2-8.4 3.5z"/></svg>