<svg version="1.2" xmlns="http://www.w3.org/2000/svg" viewBox="0 0 256 256" width="256" height="256"><style>.a{fill:#fff}</style><path class="a" d="m255.6 127.8c0 9-6.7 16-14.2 16h-14.2l0.3 80.1q0 2-0.3 4v8.1c0 11-7.9 20-17.7 20h-7.1q-0.7 0-1.5-0.1-0.9 0.1-1.8 0.1h-14.5-10.6c-9.8 0-17.8-9-17.8-20v-12-32c0-8.9-6.3-16-14.2-16h-28.4c-7.8 0-14.2 7.1-14.2 16v32 12c0 11-7.9 20-17.7 20h-10.7-14.1q-1 0-2-0.1-0.8 0.1-1.6 0.1h-7.1c-9.9 0-17.8-9-17.8-20v-56c0-0.5 0-1 0-1.4v-34.8h-14.2c-8 0-14.2-7-14.2-16 0-4.5 1.3-8.5 4.4-12l113.8-111.8c3.1-3.5 6.7-4 9.8-4 3.1 0 6.7 1 9.3 3.5l113.4 112.3c3.5 3.5 5.3 7.5 4.9 12z"/></svg>