<svg version="1.2" xmlns="http://www.w3.org/2000/svg" viewBox="0 0 256 256" width="256" height="256"><style>.a{fill:#fff}</style><path class="a" d="m234.4 196.8c-3-12.8-13.8-38.5-20.5-50.3-2.2-3.9-11.4-6.9-24.6-9-0.9-8.3-13.4-13.3-28.2-15.3v-36.6c16.7-6.4 28.5-22.5 28.5-41.3 0-24.4-20-44.3-44.7-44.3-24.7 0-44.8 19.9-44.8 44.3 0 18.8 11.9 34.9 28.5 41.3v36.7c-12.4 1.7-23.1 5.6-26.5 11.8-3.2 0.1-6.2 0.4-9.3 0.6-4.1-3.3-11.4-5.3-20.1-5.3-13.5 0-23.8 5-23.8 11.7v0.8c-3.4 1.4-5.9 2.9-6.8 4.6-6.7 11.9-17.5 37.5-20.5 50.3-1.6 6.9 4.7 39.7 4.7 39.7 1.8 10.8 12.2 19.5 23 19.5h157.2c10.9 0 21.2-8.7 23-19.5 0 0 6.6-32.3 4.9-39.7zm-81.8-108.8v45.4c-1.7 0.5-4.3 0.9-7.7 0.9-3.4 0-6-0.5-7.7-0.9v-45.4c2.5 0.4 5.1 0.7 7.7 0.7q3.9 0 7.7-0.7zm-24 42.9v6c0 3.9 8.2 5.9 16.3 5.9 8.1 0 16.2-2 16.2-5.9v-6c13 1.9 19.8 6 19.8 7.6 0 2.3-12.3 8.9-35.8 8.9-23.4 0-35.7-6.6-35.7-8.9 0-1.6 6.6-5.6 19.2-7.6zm-19.9 18.1c8.5 4.7 22.8 6.9 36.4 6.9 13.7 0 27.9-2.2 36.5-6.9 3.1 1.6 4.7 3.1 4.7 4.2 0 3.2-14 10.8-41.2 10.8-27.1 0-41.1-7.6-41.1-10.8 0-1.1 1.6-2.6 4.7-4.2zm-8 13.3c8.6 6.8 26.5 10.3 44.4 10.3 17.9 0 35.9-3.5 44.5-10.3 1.3 1.3 2 2.5 2 3.7 0 6-18.1 14.8-46.5 14.8-28.3 0-46.4-8.8-46.4-14.8 0-1.2 0.7-2.4 2-3.7zm-28-28.7c11.2 0 19.6 4 19.6 7.5 0 3.5-8.4 7.4-19.6 7.4-11.2 0-19.6-3.9-19.6-7.4 0-3.5 8.4-7.5 19.6-7.5zm-19.6 14.3c4.3 3 11.3 4.9 19.6 4.9 8.3 0 15.4-1.9 19.6-4.9v6.2c-3.4 3.5-11 5.7-19.6 5.7-8.6 0-16.1-2.2-19.5-5.7 0 0 0-6.2-0.1-6.2zm-17.8 48.3c2 0.5 4 0.8 6.1 0.6l6.6-0.3c8.9-0.4 17.8-0.8 26.6-1 17.8-0.6 35.6-0.7 53.3-0.8 17.8 0.1 35.6 0.2 53.3 0.8 8.9 0.2 17.8 0.6 26.7 1l6.6 0.3c2 0.2 4.1-0.1 6.1-0.6q1.5-0.5 2.9-1.1 1.4-0.7 2.7-1.5 1.4-0.9 2.5-1.9 1.2-1 2.2-2.2-0.8 1.4-1.8 2.7-1 1.2-2.2 2.3-1.2 1.1-2.6 1.9-1.4 0.9-2.9 1.5-0.8 0.4-1.6 0.7-0.9 0.3-1.8 0.5-0.8 0.2-1.7 0.3-0.9 0.1-1.8 0.1l-6.6 0.4q-3.4 0.2-6.7 0.3-3.3 0.2-6.6 0.3-3.4 0.1-6.7 0.2-3.3 0.1-6.7 0.2c-17.7 0.6-35.5 0.7-53.3 0.8-17.7-0.1-35.5-0.2-53.3-0.8q-3.3-0.1-6.6-0.2-3.4-0.1-6.7-0.2-3.3-0.1-6.6-0.3-3.4-0.1-6.7-0.3l-6.7-0.4q-0.9 0-1.7-0.1-0.9-0.1-1.8-0.3-0.8-0.2-1.7-0.5-0.8-0.3-1.7-0.7-1.4-0.6-2.8-1.5-1.4-0.8-2.6-1.9-1.2-1.1-2.2-2.3-1-1.3-1.8-2.7 1 1.2 2.1 2.2 1.2 1 2.5 1.9 1.3 0.8 2.8 1.5 1.4 0.6 2.9 1.1zm185.3 16.6q-0.7-0.3-1.5-0.4-0.7-0.2-1.5-0.2-0.8-0.1-1.6-0.1-0.8-0.1-1.5 0l-6.6 0.3c-8.9 0.5-17.8 0.8-26.7 1-17.7 0.6-35.5 0.8-53.3 0.8-17.7 0-35.5-0.2-53.3-0.8q-3.3-0.1-6.6-0.2-3.4-0.1-6.7-0.2-3.3-0.1-6.7-0.3-3.3-0.1-6.6-0.3l-6.7-0.3q-0.7-0.1-1.5 0-0.8 0-1.5 0.1-0.8 0-1.5 0.2-0.8 0.1-1.5 0.4-1.5 0.4-2.9 1-1.5 0.7-2.8 1.5-1.3 0.9-2.5 1.9-1.2 1-2.2 2.2 0.8-1.4 1.9-2.6 1-1.3 2.2-2.4 1.2-1 2.6-1.9 1.3-0.9 2.8-1.5 0.9-0.4 1.7-0.6 0.8-0.3 1.7-0.5 0.9-0.2 1.8-0.4 0.8-0.1 1.7-0.1l6.7-0.4c8.9-0.4 17.8-0.8 26.6-1 17.8-0.5 35.6-0.7 53.3-0.8 17.8 0.1 35.6 0.3 53.3 0.8 8.9 0.2 17.8 0.6 26.7 1l6.7 0.4c2.3 0.1 4.7 0.7 6.8 1.6q1.5 0.6 2.9 1.5 1.4 0.9 2.6 1.9 1.2 1.1 2.2 2.4 1 1.2 1.8 2.6-1-1.2-2.2-2.2-1.1-1-2.5-1.9-1.3-0.8-2.7-1.4-1.4-0.7-2.9-1.1z"/></svg>