<svg version="1.2" xmlns="http://www.w3.org/2000/svg" viewBox="0 0 256 256" width="256" height="256"><style>.a{fill:#fff}</style><path class="a" d="m63.8 78h26.5c9.3 0 16.9 7.5 16.9 16.7 0 9.2-7.6 16.6-16.9 16.6h-67.4c-9.4 0-16.9-7.4-16.9-16.6v-66.6c0-9.3 7.5-16.7 16.9-16.7 9.3 0 16.8 7.4 16.8 16.7v26.6l9.3-9.2c46.1-45.5 120.8-45.5 166.9 0 46.1 45.6 46.1 119.4 0 165-46.1 45.5-120.8 45.5-166.9 0-6.6-6.6-6.6-17.1 0-23.6 6.6-6.5 17.3-6.5 23.9 0 32.9 32.5 86.3 32.5 119.2 0 32.9-32.6 32.9-85.3 0-117.8-32.9-32.6-86.3-32.6-119.2 0z"/></svg>