<svg version="1.2" xmlns="http://www.w3.org/2000/svg" viewBox="0 0 256 256" width="256" height="256"><style>.a{fill:#fff}</style><path fill-rule="evenodd" class="a" d="m123.9 2.7l-113.6 79.8c-6.1 4.3-8.3 14-4.9 21.7 3.4 7.7 11.1 10.5 17.1 6.2l107.5-75.5 107.5 75.4c6 4.3 13.7 1.5 17.1-6.1 3.4-7.7 1.2-17.4-4.9-21.7l-113.6-79.8c-3.8-2.7-8.4-2.7-12.2 0zm-5 83.6c-3 3.8-4.7 8.8-4.7 14.1 0 5.3 1.7 10.4 4.7 14.1 2.9 3.8 6.9 5.9 11.1 5.9 4.2 0 8.2-2.1 11.2-5.9 2.9-3.7 4.6-8.8 4.6-14.1 0-5.3-1.7-10.3-4.6-14.1-3-3.7-7-5.8-11.2-5.8-4.2 0-8.2 2.1-11.1 5.8zm-69.4 47.9c-3 3.7-4.7 8.8-4.7 14.1 0 5.3 1.7 10.4 4.7 14.1 2.9 3.7 6.9 5.8 11.1 5.8 4.2 0 8.2-2.1 11.2-5.8 2.9-3.7 4.6-8.8 4.6-14.1 0-5.3-1.7-10.4-4.6-14.1-3-3.7-7-5.9-11.2-5.9-4.2 0-8.2 2.2-11.1 5.9zm138.8 28.2c2.9 3.7 6.9 5.8 11.1 5.8 4.2 0 8.2-2.1 11.2-5.8 2.9-3.7 4.6-8.8 4.6-14.1 0-5.3-1.7-10.4-4.6-14.1-3-3.7-7-5.9-11.2-5.9-4.2 0-8.2 2.2-11.1 5.9-3 3.7-4.6 8.8-4.6 14.1 0 5.3 1.6 10.4 4.6 14.1zm-82.2 88.2c4.6-3.1 6.3-10.4 3.8-16.2l-14.3-33.6c0.7-0.9 1.3-1.8 1.7-2.9l10.6-24.9v27.2c0 8.8 5.7 15.9 12.7 15.9h18.9c7 0 12.6-7.1 12.6-15.9v-27.2l10.6 24.9c0.4 1.1 1 2 1.7 2.9l-14.3 33.6c-2.5 5.8-0.8 13.1 3.8 16.2 4.6 3.1 10.4 1 12.8-4.9l10.6-24.9v19.2c0 8.9 5.7 16 12.7 16h18.9c7 0 12.6-7.1 12.6-16v-19.2l10.6 24.9c2.5 5.9 8.2 8.1 12.8 4.9 4.6-3.1 6.4-10.4 3.9-16.2l-15-35c-6-14.3-17.8-23.1-30.5-23.1h-7.7c-6.5 0-12.6 2.2-17.9 6.3l-13.3-31.1c-6.1-14.2-17.8-23.1-30.6-23.1h-7.6c-12.8 0-24.6 8.9-30.6 23.1l-13.3 31.1c-5.3-4.1-11.4-6.3-17.9-6.3h-7.7c-12.7 0-24.5 8.8-30.5 23.1l-15 35c-2.4 5.8-0.7 13.1 3.9 16.2 4.6 3.1 10.3 1 12.8-4.9l10.6-24.9v19.2c0 8.9 5.7 16 12.6 16h19c7 0 12.6-7.1 12.6-16v-19.2l10.6 24.9c2.4 5.9 8.2 8.1 12.8 4.9z"/></svg>