<svg version="1.2" xmlns="http://www.w3.org/2000/svg" viewBox="0 0 256 256" width="256" height="256"><style>.a{fill:#fff}</style><path fill-rule="evenodd" class="a" d="m233.2 11.3l11.5 11.5c12.3 12.3 12.3 32.2 0 44.5l-27.7 27.8-56.1-56.1 27.7-27.7c12.3-12.3 32.2-12.3 44.6 0zm-208.8 164.3l125.4-125.4 56 56-125.4 125.4c-3.2 3.3-7.4 5.7-11.9 7l-51.1 14.6c-4.2 1.2-8.6 0-11.6-3-3.1-3.1-4.2-7.5-3-11.6l14.6-51.2c1.3-4.5 3.7-8.6 7-11.8zm100.6-122.9l-71.8 71.8-43-43.1c-9.2-9.2-9.2-24.1 0-33.4l38.4-38.3c9.2-9.2 24.2-9.2 33.4 0l9.8 9.7c-0.2 0.2-0.4 0.3-0.5 0.5l-31.5 31.4c-3.1 3.1-3.1 8.1 0 11.2 3 3 8.1 3 11.1 0l31.5-31.5c0.1-0.2 0.3-0.4 0.4-0.5zm78.3 78.3l22.2 22.2c-0.1 0.1-0.3 0.3-0.5 0.4l-31.4 31.5c-3.1 3.1-3.1 8.1 0 11.1 3 3.1 8 3.1 11.1 0l31.5-31.5c0.1-0.1 0.3-0.3 0.4-0.4l9.7 9.7c9.2 9.2 9.2 24.2 0 33.4l-38.4 38.4c-9.2 9.2-24.1 9.2-33.4 0l-43-43z"/></svg>