<svg version="1.2" xmlns="http://www.w3.org/2000/svg" viewBox="0 0 256 256" width="256" height="256"><style>.a{fill:#fff}</style><path fill-rule="evenodd" class="a" d="m77.3 8.8c3-5.4 9.4-8.8 16.3-8.8h68.8c6.9 0 13.3 3.4 16.3 8.8l4.2 7.2h54.8c10.1 0 18.3 7.1 18.3 16 0 8.8-8.2 16-18.3 16h-219.4c-10.1 0-18.3-7.2-18.3-16 0-8.9 8.2-16 18.3-16h54.8zm-58.9 55.2h219.4v160c0 17.6-16.4 32-36.6 32h-146.3c-20.1 0-36.5-14.4-36.5-32zm54.8 32c-5 0-9.1 3.5-9.1 8v112c0 4.4 4.1 8 9.1 8 5.1 0 9.2-3.6 9.2-8v-112c0-4.5-4.1-8-9.2-8zm54.9 0c-5 0-9.2 3.5-9.2 8v112c0 4.4 4.2 8 9.2 8 5 0 9.1-3.6 9.1-8v-112c0-4.5-4.1-8-9.1-8zm54.8 0c-5 0-9.1 3.5-9.1 8v112c0 4.4 4.1 8 9.1 8 5.1 0 9.2-3.6 9.2-8v-112c0-4.5-4.1-8-9.2-8z"/></svg>