<svg version="1.2" xmlns="http://www.w3.org/2000/svg" viewBox="0 0 128 128" width="128" height="128"><style>.a{fill:#de5303}</style><path fill-rule="evenodd" class="a" d="m46.4 108.3c0.7-3.5 3.5-5.5 6.8-5.5 3.4 0.1 5.2 1.9 5.8 5.6 0.2 1.5 0.2 3.2 0.2 4.8 0 3.2 0.9 6.2 2.6 8.9 1.7 2.6 3.9 4.6 6.9 5.9-0.2-0.4-0.2-0.6-0.3-0.7-2.1-6.8-0.6-11.5 5.3-15.4 1.9-1.4 3.9-2.6 5.7-4 4.7-3.3 7.6-7.9 8.3-13.8 0.3-2.3 0.1-4.7-0.7-7-1.1 0.6-2.1 1.2-3 1.7-8.6 4.3-17.7 4.7-26.9 3.3-6-0.8-11.8-2.5-15.9-7.5-2.6 8-0.8 19.1 5 24.4q0.1-0.4 0.2-0.7zm-33.2-25c0 0 17.1-8.4 34.3-8.4l12.9-40.1c0.5-1.9 1.9-3.2 3.5-3.2 1.5 0 3 1.3 3.4 3.2l13.1 40.1c20.3 0 34.2 8.4 34.2 8.4 0 0-29.1-79.2-29.1-79.5-0.8-2.2-2.2-3.8-4.2-3.8h-34.9c-1.9 0-3.2 1.6-4.1 3.8-0.1 0.1-29.1 79.5-29.1 79.5z"/></svg>