<svg version="1.2" xmlns="http://www.w3.org/2000/svg" viewBox="0 0 108 108" width="256" height="256"><defs><linearGradient id="P" gradientUnits="userSpaceOnUse"/><linearGradient id="g1" x2="1" href="#P" gradientTransform="matrix(46.675,-22.053,23.739,50.242,33.47,107)"><stop stop-color="#d83333"/><stop offset="1" stop-color="#f041ff"/></linearGradient></defs><style>.a{fill:#fff}.b{fill:url(#g1)}</style><path class="a" d="m38.6 91.1c-4.8-4.4-6.3-13.7-4.2-20.4 3.5 4.2 8.3 5.6 13.3 6.3 7.7 1.2 15.3 0.8 22.5-2.8 0.8-0.4 1.6-0.9 2.5-1.4 0.7 1.9 0.9 3.9 0.6 5.9-0.6 4.9-3 8.7-6.9 11.5-1.5 1.2-3.2 2.2-4.8 3.3-4.9 3.3-6.2 7.2-4.4 12.9 0.1 0.1 0.1 0.3 0.2 0.6-2.5-1.1-4.3-2.8-5.7-4.9-1.5-2.3-2.2-4.8-2.2-7.5 0-1.3 0-2.7-0.2-4-0.5-3.1-2-4.6-4.8-4.7-2.8 0-5.1 1.7-5.7 4.6q-0.1 0.3-0.2 0.6z"/><path class="b" d="m38.6 91.1c-4.8-4.4-6.3-13.7-4.2-20.4 3.5 4.2 8.3 5.6 13.3 6.3 7.7 1.2 15.3 0.8 22.5-2.8 0.8-0.4 1.6-0.9 2.5-1.4 0.7 1.9 0.9 3.9 0.6 5.9-0.6 4.9-3 8.7-6.9 11.5-1.5 1.2-3.2 2.2-4.8 3.3-4.9 3.3-6.2 7.2-4.4 12.9 0.1 0.1 0.1 0.3 0.2 0.6-2.5-1.1-4.3-2.8-5.7-4.9-1.5-2.3-2.2-4.8-2.2-7.5 0-1.3 0-2.7-0.2-4-0.5-3.1-2-4.6-4.8-4.7-2.8 0-5.1 1.7-5.7 4.6q-0.1 0.3-0.2 0.6z"/><path class="a" d="m11 69.6c0 0 14.3-7 28.7-7l10.8-33.5c0.4-1.6 1.6-2.7 2.9-2.7 1.3 0 2.5 1.1 2.9 2.7l10.9 33.5c17 0 28.6 7 28.6 7 0 0-24.3-66.2-24.3-66.4-0.7-1.9-1.9-3.2-3.5-3.2h-29.2c-1.6 0-2.7 1.3-3.4 3.2-0.1 0.1-24.4 66.4-24.4 66.4z"/></svg>