<svg version="1.2" xmlns="http://www.w3.org/2000/svg" viewBox="0 0 420 420" width="256" height="256"><style>.a{fill:#004482}.b{fill:#659ad2}.c{fill:#fff}.d{fill:#00599c}</style><path fill-rule="evenodd" class="a" d="m199 2.9c6.8-3.8 15.2-3.8 22 0 33.5 18.8 134.5 75.5 168 94.3 6.8 3.8 11 10.8 11 18.5 0 37.6 0 151 0 188.6 0 7.7-4.2 14.7-11 18.5-33.5 18.8-134.5 75.5-168 94.3-6.8 3.9-15.2 3.9-22 0-33.5-18.8-134.5-75.5-168-94.3-6.8-3.8-11-10.8-11-18.5 0-37.6 0-151 0-188.6 0-7.6 4.2-14.7 11-18.5 33.5-18.8 134.5-75.5 168-94.3z"/><path fill-rule="evenodd" class="b" d="m23 314c-2.6-3.5-3-6.9-3-11.4 0-37.5 0-150.2 0-187.6 0-7.6 4.2-14.6 10.9-18.4 33.5-18.7 134.1-75.1 167.5-93.8 6.8-3.8 16-3.7 22.7 0.1 33.5 18.7 133.7 74.6 167.2 93.3 2.7 1.5 4.7 3.3 6.6 5.8z"/><path fill-rule="evenodd" class="c" d="m210 70c77.3 0 140 62.7 140 140 0 77.3-62.7 140-140 140-77.3 0-140-62.7-140-140 0-77.3 62.7-140 140-140zm-70 140c0 38.6 31.4 70 70 70 38.6 0 70-31.4 70-70 0-38.6-31.4-70-70-70-38.6 0-70 31.4-70 70z"/><path fill-rule="evenodd" class="d" d="m394.9 102.1c5.1 4.8 5 12.1 5 17.8 0 37.9-0.3 145.9 0.1 183.8 0 4-1.3 8.2-3.2 11.3l-190.9-105z"/></svg>