<svg version="1.2" xmlns="http://www.w3.org/2000/svg" viewBox="0 0 128 128" width="128" height="128"><style>.a{fill:#874fff}</style><path fill-rule="evenodd" class="a" d="m21.3 106.6c0-11.7 9.6-21.3 21.4-21.3-11.8 0-21.4-9.6-21.4-21.3 0-11.8 9.6-21.4 21.4-21.4-11.8 0-21.4-9.5-21.4-21.3 0-11.8 9.6-21.4 21.4-21.4h21.3v42.7h21.3c11.8 0 21.4-9.5 21.4-21.3 0-11.8-9.6-21.4-21.4-21.4h-21.3v106.7c0 11.8-9.6 21.4-21.3 21.4-11.8 0-21.4-9.6-21.4-21.4zm85.4-42.6c0 11.7-9.6 21.3-21.4 21.3-11.8 0-21.3-9.6-21.3-21.3 0-11.8 9.5-21.4 21.3-21.4 11.8 0 21.4 9.6 21.4 21.4z"/></svg>