<svg version="1.2" xmlns="http://www.w3.org/2000/svg" viewBox="0 0 256 256" width="256" height="256"><style>.a{fill:#00bc7d}</style><path fill-rule="evenodd" class="a" d="m128 256c-70.8 0-128-57.2-128-128 0-70.8 57.2-128 128-128 70.8 0 128 57.2 128 128 0 70.8-57.2 128-128 128zm-13-201.6c-2.5 0.7-6.3 2.2-8.5 3.3-2.2 1.2-6.1 4.4-8.8 7.2-2.6 2.8-5.7 7.2-6.8 9.8-1.6 3.5-2.3 7.3-2.5 14l-0.4 9.3h-19v29h19v76h34v-76h31c0 56.6 0.2 73.7 0.5 74.5 0.4 1.3 3.3 1.5 17.5 1.5h17v-105h-66c0-3.5 0.5-6.2 1-8.3 0.6-2.1 2.2-4.6 3.8-5.7 2.4-1.8 4.2-2.1 15-2 11.8 0 12.2-0.1 12.7-2.3 0.3-1.2 0.4-7.6 0.3-14.2l-0.3-12c-29.1-0.3-36.5 0.1-39.5 0.9z"/></svg>