<svg version="1.2" xmlns="http://www.w3.org/2000/svg" viewBox="0 0 256 256" width="256" height="256"><style>.a{fill:#00bc7d}</style><path fill-rule="evenodd" class="a" d="m256 128.7c0 58.4-35 108.5-86.6 126-6.6 1.2-8.9-3-8.9-6.4 0-4.3 0.1-26.3 0.1-44.1 0-12.4-4-20.3-8.8-24.4 28.9-3.4 59.3-7.4 59.3-58.3 0-14.5-5.1-21.7-13.3-31.1 1.3-3.4 5.7-17.5-1.4-35.8-10.8-3.4-35.6 14.3-35.6 14.3-10.3-3-21.4-4.5-32.4-4.5-11 0-22.1 1.5-32.4 4.5 0 0-24.8-17.7-35.6-14.3-7.1 18.3-2.7 32.4-1.4 35.8-8.2 9.3-12.1 16.6-12.1 31.1 0 50.7 29.1 55 57.9 58.3-3.7 3.4-7.1 9.3-8.2 17.7-7.4 3.5-26.4 9.4-37.7-11-7-12.5-19.9-13.6-19.9-13.6-12.6-0.2-0.8 8.1-0.8 8.1 8.5 4 14.3 19.3 14.3 19.3 7.6 23.6 43.8 15.7 43.8 15.7 0 11.1 0.1 29.1 0.1 32.4 0 3.4-2.3 7.6-8.9 6.4-51.5-17.6-87.5-67.7-87.5-126.1 0-73.2 54.8-128.7 126.3-128.7 71.6 0 129.7 55.5 129.7 128.7zm-183.2 73c1.5 0.5 2.5 1.7 2.2 2.8-0.3 1-1.9 1.6-3.2 1-1.6-0.3-2.6-1.5-2.2-2.5 0.3-1.1 1.8-1.6 3.2-1.3zm22.6 1.9c0.2 1-0.8 2-2.3 2.4-1.6 0.4-2.9-0.3-3.1-1.4-0.1-1.2 0.9-2.2 2.4-2.5 1.5-0.2 2.9 0.5 3 1.5zm-9.8 1.7c0 1.1-1.2 1.9-2.7 1.9-1.7 0.2-2.8-0.7-2.8-1.9 0-1 1.1-1.9 2.6-1.9 1.6-0.1 2.9 0.7 2.9 1.9zm-32.8-22.9c0.9 1 1.1 2.2 0.4 2.7-0.7 0.7-1.9 0.4-2.7-0.5-0.9-1-1-2.2-0.3-2.7 0.6-0.7 1.8-0.3 2.6 0.5zm-6-5.2c1 0.6 1.6 1.4 1.2 2.1-0.4 0.7-1.4 0.9-2.2 0.4-1.1-0.6-1.6-1.4-1.2-2.1 0.3-0.5 1.2-0.7 2.2-0.4zm17.9 19.7c1 1 1.3 2.6 0.6 3.3-0.6 0.8-2.1 0.7-3.3-0.6-1.2-1-1.5-2.5-0.7-3.2 0.7-0.9 2.2-0.7 3.4 0.5zm-6.4-7.2c0.9 1.2 0.9 2.6 0 3.2-0.6 0.6-2 0-2.9-1.2-0.8-1.2-0.8-2.6 0-3.1 0.9-0.7 2.2-0.1 2.9 1.1z"/></svg>