<svg version="1.2" xmlns="http://www.w3.org/2000/svg" viewBox="0 0 256 256" width="256" height="256">
	<title>New Project</title>
	<style>
		.s0 { fill: #ffffff } 
	</style>
	<path id="Background" fill-rule="evenodd" class="s0" d="m256 128.66c0 58.48-34.99 108.52-86.61 126.02-6.55 1.21-8.93-2.95-8.93-6.38 0-4.32 0.16-26.31 0.16-44.08 0-12.39-4.03-20.3-8.77-24.47 28.85-3.32 59.25-7.38 59.25-58.26 0-14.45-5.06-21.73-13.32-31.06 1.34-3.43 5.73-17.51-1.34-35.8-10.79-3.48-35.61 14.23-35.61 14.23-10.33-2.95-21.42-4.48-32.42-4.48-10.99 0-22.09 1.53-32.41 4.48 0 0-24.83-17.66-35.61-14.23-7.07 18.24-2.69 32.37-1.34 35.8-8.26 9.28-12.19 16.56-12.19 31.06 0 50.72 29.11 54.99 57.97 58.26-3.72 3.48-7.08 9.34-8.26 17.77-7.38 3.48-26.32 9.34-37.63-11.02-7.07-12.55-19.92-13.6-19.92-13.6-12.65-0.16-0.83 8.12-0.83 8.12 8.47 3.95 14.35 19.3 14.35 19.3 7.59 23.62 43.72 15.71 43.72 15.71 0 11.07 0.15 29.11 0.15 32.38 0 3.42-2.32 7.59-8.93 6.38-51.45-17.61-87.48-67.65-87.48-126.13 0-73.14 54.76-128.66 126.35-128.66 71.59 0 129.65 55.52 129.65 128.66zm-183.23 73.08c1.55 0.48 2.53 1.69 2.22 2.74-0.31 1.06-1.85 1.59-3.2 1.06-1.54-0.32-2.58-1.53-2.22-2.59 0.37-1.05 1.86-1.58 3.2-1.21zm22.66 1.85c0.16 1.05-0.88 2.05-2.37 2.42-1.55 0.37-2.89-0.31-3.05-1.37-0.15-1.21 0.88-2.21 2.38-2.58 1.49-0.16 2.89 0.53 3.04 1.53zm-9.8 1.74c0 1.05-1.19 1.9-2.69 1.9-1.7 0.15-2.89-0.69-2.89-1.9 0-1.06 1.19-1.9 2.69-1.9 1.54-0.16 2.89 0.68 2.89 1.9zm-32.78-22.94c0.88 1 1.03 2.21 0.36 2.74-0.67 0.69-1.86 0.32-2.68-0.53-0.88-1-1.03-2.21-0.36-2.74 0.67-0.68 1.86-0.31 2.68 0.53zm-6.04-5.17c1.04 0.53 1.55 1.37 1.19 2.06-0.36 0.74-1.39 0.9-2.22 0.37-1.03-0.53-1.55-1.37-1.19-2.06 0.36-0.53 1.19-0.68 2.22-0.37zm17.86 19.67c1.03 1 1.34 2.58 0.67 3.27-0.67 0.84-2.17 0.69-3.35-0.53-1.19-1-1.5-2.58-0.67-3.27 0.67-0.84 2.22-0.68 3.35 0.53zm-6.35-7.22c0.83 1.21 0.83 2.58 0 3.27-0.67 0.52-2.06 0-2.89-1.22-0.82-1.21-0.82-2.58 0-3.11 0.83-0.68 2.17-0.16 2.89 1.06z"/>
</svg>