<svg version="1.2" xmlns="http://www.w3.org/2000/svg" viewBox="0 0 128 128" width="128" height="128"><style>.a{fill:#1dece6}</style><path fill-rule="evenodd" class="a" d="m63.9 1.3c-35.4 0-63.9 28.7-63.9 64.3 0 28.4 18.3 52.5 43.6 61 3.2 0.6 4.3-1.5 4.3-3.2 0-1.4-0.1-6.5-0.1-11.9-17.6 4-21.4-7.5-21.4-7.5-2.9-7.6-7.1-9.4-7.1-9.4-5.7-4 0.4-4 0.4-4 6.6 0.4 9.8 6.6 9.8 6.6 5.8 9.8 15 7 18.7 5.3 0.5-4.1 2.2-7 4-8.6-14.2-1.4-29.1-7-29.1-31.7 0-7.1 2.6-12.8 6.5-17.3-0.6-1.5-2.8-8.2 0.7-16.9 0 0 5.4-1.7 17.5 6.5q2-0.5 3.9-0.9 2.1-0.4 4.1-0.7 1.9-0.2 4-0.4 2-0.1 4.1-0.1c5.3 0 10.8 0.8 15.9 2.1 12.2-8.2 17.5-6.5 17.5-6.5 3.5 8.7 1.3 15.4 0.7 16.9 4 4.5 6.5 10.2 6.5 17.3 0 24.7-14.9 30.1-29.1 31.7 2.3 2 4.3 5.9 4.3 11.9 0 8.6-0.2 15.5-0.2 17.6 0 1.7 1.2 3.8 4.4 3.2 25.3-8.5 43.6-32.6 43.6-61 0.1-35.6-28.5-64.3-63.6-64.3z"/></svg>