<svg version="1.2" xmlns="http://www.w3.org/2000/svg" viewBox="0 0 234 234" width="256" height="256"><style>.a{fill:none;stroke:#df6c20;stroke-width:15}</style><path fill-rule="evenodd" class="a" d="m117 78c-47 0-85-15.6-85-35 0-19.4 38-35 85-35 47 0 85 15.6 85 35 0 19.4-38 35-85 35z"/><path class="a" d="m32 43v150c0.9 9.3 10.6 18.2 27.1 24.8 16.4 6.5 38.4 10.2 60.9 10.2 22.5 0 43.8-3.7 59.2-10.2 15.3-6.6 23.5-15.5 22.7-24.8l0.1-150m-170 50c0.9 9.3 10.6 18.2 27.1 24.8 16.4 6.5 38.4 10.2 60.9 10.2 22.5 0 43.8-3.7 59.2-10.2 15.3-6.6 23.5-15.5 22.7-24.8m-169.9 50c0.9 9.3 10.6 18.2 27.1 24.8 16.4 6.5 38.4 10.2 60.9 10.2 22.5 0 43.8-3.7 59.2-10.2 15.3-6.6 23.5-15.5 22.7-24.8"/></svg>