<svg version="1.2" xmlns="http://www.w3.org/2000/svg" viewBox="0 0 800 800" width="256" height="256"><style>.a{fill:#fff}</style><path class="a" d="m618.8 167.3c-84.7 0-150.4 55-177.1 145.5-40.6-61.1-71.6-134.5-89.6-196.4h-91.1v237.1c-0.2 46.9-38.1 84.8-84.9 84.9-46.9-0.1-84.8-38.1-84.9-84.9v-237.1h-91.2v237.1c0 97.1 79 176.7 176.1 176.7 97.1 0 176-79.5 176-176.7v-39.7c17.7 36.8 39.5 74.3 65.9 107.4l-55.9 262.4h93.3l40.5-190.4c35.4 22.7 76.1 37 122.9 37 100 0 181.2-81.8 181.2-181.7 0-100-81.2-181.2-181.2-181.2zm0 271.3c-36.8 0-71.3-15.5-102.5-40.9l7.5-35.8 0.3-1.4c6.9-38.1 28.2-102 94.6-102 49.8 0 90.1 40.4 90.1 90.1 0 49.6-40.3 90-90 90z"/></svg>