# Blender 4.5.3 LTS
# www.blender.org
o Cube.001
v 0.666000 -1.000000 0.147850
v 0.597850 -1.000000 0.216000
v 0.664277 -1.000000 0.240000
v 0.597850 -1.000000 -0.216000
v 0.666000 -1.000000 -0.147850
v 0.664277 -1.000000 -0.240000
v -0.597850 -1.000000 0.216000
v -0.666000 -1.000000 0.147850
v -0.664277 -1.000000 0.240000
v -0.666000 -1.000000 -0.147850
v -0.597850 -1.000000 -0.216000
v -0.664277 -1.000000 -0.240000
v 0.617443 1.000000 0.126932
v 0.664277 0.886932 0.340000
v 0.626932 1.000000 0.117443
v 0.740000 0.886932 0.164277
v 0.626932 1.000000 -0.117443
v 0.740000 0.886932 -0.164277
v 0.617443 1.000000 -0.126932
v 0.664277 0.886932 -0.340000
v -0.626932 1.000000 0.117443
v -0.740000 0.886932 0.164277
v -0.617443 1.000000 0.126932
v -0.664277 0.886932 0.340000
v -0.617443 1.000000 -0.126932
v -0.664277 0.886932 -0.340000
v -0.626932 1.000000 -0.117443
v -0.740000 0.886932 -0.164277
v 0.631925 -1.000000 0.181925
v 0.631925 -1.000000 -0.181925
v -0.631925 -1.000000 0.181925
v -0.631925 -1.000000 -0.181925
v 0.666000 -1.000000 -0.000000
v 0.000000 -1.000000 0.216000
v 0.000000 -1.000000 -0.216000
v -0.666000 -1.000000 -0.000000
v -0.702139 0.886932 -0.202139
v 0.702139 0.886932 -0.202139
v -0.702139 0.886932 0.202139
v 0.702139 0.886932 0.202139
v 0.740000 0.886932 0.000000
v 0.000000 0.886932 0.340000
v 0.000000 0.886932 -0.340000
v -0.740000 0.886932 0.000000
v 0.740000 -0.056534 0.164277
v 0.664277 -0.056534 0.340000
v -0.664277 -0.056534 0.340000
v 0.740000 -0.056534 -0.164277
v 0.664277 -0.056534 -0.340000
v -0.664277 -0.056534 -0.340000
v -0.740000 -0.056534 0.164277
v -0.740000 -0.056534 -0.164277
v -0.702139 -0.056534 -0.202139
v -0.740000 -0.056534 0.000000
v -0.702139 -0.056534 0.202139
v 0.000000 -0.056534 -0.340000
v 0.702139 -0.056534 -0.202139
v 0.740000 -0.056534 0.000000
v 0.000000 -0.056534 0.340000
v 0.702139 -0.056534 0.202139
v 0.444658 -2.000000 0.100000
v 0.400000 -2.000000 0.055342
v 0.260000 -1.000000 0.195342
v 0.304658 -1.000000 0.240000
v 0.400000 -2.000000 -0.055342
v 0.444658 -2.000000 -0.100000
v 0.304658 -1.000000 -0.240000
v 0.260000 -1.000000 -0.195342
v 0.600000 -2.000000 0.055342
v 0.555342 -2.000000 0.100000
v 0.555342 -2.000000 -0.100000
v 0.600000 -2.000000 -0.055342
v -0.555342 -2.000000 0.100000
v -0.600000 -2.000000 0.055342
v -0.600000 -2.000000 -0.055342
v -0.555342 -2.000000 -0.100000
v -0.400000 -2.000000 0.055342
v -0.444658 -2.000000 0.100000
v -0.304658 -1.000000 0.240000
v -0.260000 -1.000000 0.195342
v -0.444658 -2.000000 -0.100000
v -0.400000 -2.000000 -0.055342
v -0.260000 -1.000000 -0.195342
v -0.304658 -1.000000 -0.240000
v 0.691076 -1.030473 0.235734
v 0.705339 -1.045946 0.198416
v 0.705339 -1.045946 -0.198416
v 0.691076 -1.030473 -0.235734
v -0.705339 -1.045946 0.198416
v -0.691076 -1.030473 0.235734
v -0.691076 -1.030473 -0.235734
v -0.705339 -1.045946 -0.198416
vn -0.6558 0.6920 -0.3017
vn 0.6558 0.6920 -0.3017
vn -0.6558 0.6920 0.3017
vn 0.6558 0.6920 0.3017
vn 0.7071 0.7071 -0.0000
vn -0.0000 0.8833 0.4688
vn -0.0000 0.8833 -0.4688
vn -0.7071 0.7071 -0.0000
vn -0.0000 1.0000 -0.0000
vn 0.9643 -0.0000 0.2648
vn -0.0000 -0.0000 1.0000
vn 1.0000 -0.0000 -0.0000
vn 0.9183 -0.0959 -0.3842
vn -0.0000 -0.0000 -1.0000
vn -0.7071 -0.0000 0.7071
vn -1.0000 -0.0000 -0.0000
vn -0.9643 -0.0000 -0.2648
vn -0.0000 -1.0000 -0.0000
vn -0.9183 -0.0959 -0.3842
vn -0.7055 -0.0676 -0.7055
vn -0.7071 -0.0000 -0.7071
vn -0.9969 -0.0782 -0.0000
vn -0.7055 -0.0676 0.7055
vn -0.9183 -0.0959 0.3842
vn -0.9643 -0.0000 0.2648
vn -0.0000 -0.1303 -0.9915
vn 0.9643 -0.0000 -0.2648
vn 0.7071 -0.0000 -0.7071
vn 0.7055 -0.0676 -0.7055
vn 0.9969 -0.0782 -0.0000
vn -0.0000 -0.1303 0.9915
vn 0.9183 -0.0959 0.3842
vn 0.7055 -0.0676 0.7055
vn 0.7071 -0.0000 0.7071
vn -0.6936 -0.1942 0.6936
vn -0.6936 -0.1942 -0.6936
vn 0.6936 -0.1942 -0.6936
vn 0.6936 -0.1942 0.6936
vn 0.7813 -0.1843 -0.5963
vn 0.7813 -0.1843 0.5963
vn -0.7813 -0.1843 0.5963
vn -0.7813 -0.1843 -0.5963
vn -0.9903 -0.1386 -0.0000
vn -0.0000 -0.1386 0.9903
vn -0.0000 -0.1386 -0.9903
vn 0.9987 -0.0507 -0.0000
vn -0.9987 -0.0507 -0.0000
vn 0.9903 -0.1386 -0.0000
vn 0.4404 0.8978 0.0082
vn 0.4404 0.8978 -0.0082
vn -0.4404 0.8978 0.0082
vn -0.4404 0.8978 -0.0082
vt 0.625000 0.216555
vt 0.625000 0.223151
vt 0.624999 0.259510
vt 0.624999 0.235035
vt 0.625000 0.210561
vt 0.625000 0.526849
vt 0.625000 0.533445
vt 0.625000 0.539431
vt 0.625000 0.514949
vt 0.625000 0.490467
vt 0.625000 0.103980
vt 0.625000 0.104734
vt 0.625000 0.039439
vt 0.624999 0.033984
vt 0.624999 0.028529
vt 0.625000 0.645266
vt 0.625000 0.646020
vt 0.625000 0.721495
vt 0.625000 0.716032
vt 0.625000 0.710570
vt 0.625000 0.625000
vt 0.624999 0.375012
vt 0.624999 0.374988
vt 0.625000 0.125000
vt 0.624997 0.723395
vt 0.625000 0.736152
vt 0.000000 0.000000
vt 0.624995 0.625000
vt 0.624995 0.539362
vt 0.624997 0.517095
vt 0.624995 0.519242
vt 0.625000 0.499191
vt 0.625000 0.494829
vt 0.624987 0.026852
vt 0.625000 0.039439
vt 0.624987 0.232658
vt 0.624973 0.254755
vt 0.624974 0.230281
vt 0.624948 0.250000
vt 0.625000 0.210561
vt 0.624974 0.019719
vt 0.624948 0.000000
vt 0.624973 0.014264
vt 0.624991 0.539293
vt 0.624995 0.710638
vt 0.624991 0.710707
vt 0.624991 0.625000
vt 0.624995 0.730758
vt 0.625000 0.750809
vt 0.375000 0.000000
vt 0.623496 0.000000
vt 0.625000 0.023259
vt 0.375000 0.055822
vt 0.625000 0.273259
vt 0.375000 0.305822
vt 0.375000 0.194178
vt 0.625000 0.226741
vt 0.625000 0.523259
vt 0.375000 0.555822
vt 0.369306 0.449872
vt 0.624996 0.476684
vt 0.625000 0.773259
vt 0.369306 0.800128
vt 0.375000 0.694178
vt 0.625000 0.726741
vt 0.369048 0.450130
vt 0.617382 0.476741
vt 0.613510 0.514989
vt 0.617382 0.773259
vt 0.369048 0.799870
vt 0.375000 0.694178
vt 0.613510 0.735011
vt 0.613514 0.015044
vt 0.375000 0.055822
vt 0.607462 0.000000
vt 0.617362 0.272957
vt 0.375000 0.305822
vt 0.375000 0.194178
vt 0.613514 0.234956
vt 0.125000 0.555822
vt 0.180822 0.500000
vt 0.180822 0.750000
vt 0.125000 0.694178
vt 0.625000 0.789439
vt 0.625000 0.976741
vt 0.375000 0.944178
vt 0.625000 0.460561
vt 0.180822 0.500000
vt 0.180822 0.750000
vt 0.625000 0.960561
vt 0.617382 0.976741
vt 0.375000 0.944178
vt 0.624967 0.288926
vt 0.622450 0.000000
s 0
f 27/1/1 25/2/1 26/3/1 37/4/1 28/5/1
f 19/6/2 17/7/2 18/8/2 38/9/2 20/10/2
f 23/11/3 21/12/3 22/13/3 39/14/3 24/15/3
f 15/16/4 13/17/4 14/18/4 40/19/4 16/20/4
f 17/7/5 15/16/5 16/20/5 41/21/5 18/8/5
f 13/17/6 23/11/6 24/15/6 42/22/6 14/18/6
f 25/2/7 19/6/7 20/10/7 43/23/7 26/3/7
f 21/12/8 27/1/8 28/5/8 44/24/8 22/13/8
f 17/7/9 19/6/9 25/2/9 27/1/9 21/12/9 23/11/9 13/17/9 15/16/9
f 60/25/10 40/19/10 14/18/10 46/26/10
f 59/27/11 46/27/11 14/27/11 42/27/11
f 58/28/12 48/29/12 18/8/12 41/21/12
f 57/30/13 30/31/13 4/32/13 49/33/13
f 56/27/14 50/27/14 26/27/14 43/27/14
f 55/34/15 39/14/15 22/13/15 51/35/15
f 54/24/16 51/35/16 22/13/16 44/24/16
f 53/36/17 37/4/17 26/3/17 50/37/17
f 5/27/18 33/27/18 1/27/18 29/27/18 2/27/18 34/27/18 7/27/18 31/27/18 8/27/18 36/27/18 10/27/18 32/27/18 11/27/18 35/27/18 4/27/18 30/27/18
f 32/38/19 53/36/19 50/37/19 11/39/19
f 10/40/20 52/40/20 53/36/20 32/38/20
f 52/40/21 28/5/21 37/4/21 53/36/21
f 52/40/16 54/24/16 44/24/16 28/5/16
f 10/40/22 36/24/22 54/24/22 52/40/22
f 36/24/22 8/35/22 51/35/22 54/24/22
f 31/41/23 55/34/23 51/35/23 8/35/23
f 7/42/24 47/43/24 55/34/24 31/41/24
f 47/43/25 24/15/25 39/14/25 55/34/25
f 49/27/14 56/27/14 43/27/14 20/27/14
f 4/27/26 35/27/26 56/27/26 49/27/26
f 35/27/26 11/27/26 50/27/26 56/27/26
f 38/9/27 57/30/27 49/33/27 20/10/27
f 18/8/28 48/29/28 57/30/28 38/9/28
f 48/29/29 5/44/29 30/31/29 57/30/29
f 45/45/12 58/28/12 41/21/12 16/20/12
f 1/46/30 33/47/30 58/28/30 45/45/30
f 33/47/30 5/44/30 48/29/30 58/28/30
f 47/27/11 59/27/11 42/27/11 24/27/11
f 7/27/31 34/27/31 59/27/31 47/27/31
f 34/27/31 2/27/31 46/27/31 59/27/31
f 29/48/32 60/25/32 46/26/32 2/49/32
f 1/46/33 45/45/33 60/25/33 29/48/33
f 45/45/34 16/20/34 40/19/34 60/25/34
f 61/50/35 64/51/35 63/52/35 62/53/35
f 67/54/36 66/55/36 65/56/36 68/57/36
f 83/58/37 82/59/37 81/60/37 84/61/37
f 79/62/38 78/63/38 77/64/38 80/65/38
f 71/66/39 88/67/39 87/68/39 72/59/39
f 85/69/40 70/70/40 69/71/40 86/72/40
f 89/73/41 74/74/41 73/50/41 90/75/41
f 91/76/42 76/77/42 75/78/42 92/79/42
f 65/80/18 66/81/18 71/66/18 72/59/18 69/71/18 70/70/18 61/82/18 62/83/18
f 62/53/43 63/52/43 68/57/43 65/56/43
f 70/70/44 85/69/44 3/84/44 64/85/44 61/86/44
f 66/55/45 67/54/45 6/87/45 88/67/45 71/66/45
f 72/59/46 87/68/46 5/44/46 33/47/46 1/46/46 86/72/46 69/71/46
f 74/74/47 89/73/47 8/35/47 36/24/47 10/40/47 92/79/47 75/78/47
f 75/80/18 76/88/18 81/60/18 82/59/18 77/64/18 78/63/18 73/89/18 74/83/18
f 78/63/44 79/62/44 9/90/44 90/91/44 73/92/44
f 76/77/45 91/76/45 12/93/45 84/61/45 81/60/45
f 82/59/48 83/58/48 80/65/48 77/64/48
f 1/46/49 29/48/49 2/49/49 3/84/49 85/69/49 86/72/49
f 4/32/50 30/31/50 5/44/50 87/68/50 88/67/50 6/87/50
f 7/42/51 31/41/51 8/35/51 89/73/51 90/75/51 9/94/51
f 10/40/52 32/38/52 11/39/52 12/93/52 91/76/52 92/79/52
