# Blender 4.5.3 LTS
# www.blender.org
o Cube.002
v 1.213398 1.869153 0.610830
v 1.024014 2.447705 -0.109099
v 1.254912 1.858554 0.591819
v 1.077153 2.434138 -0.133434
v 1.356911 2.167653 0.757791
v 1.080700 2.565610 -0.051051
v 1.398425 2.157053 0.738780
v 1.133839 2.552043 -0.075386
v 1.070802 2.567492 -0.221650
v 1.017663 2.581059 -0.197315
v 1.197670 1.823083 0.587014
v 0.991796 2.485947 -0.225429
v 1.027222 2.476902 -0.241652
v 1.228295 1.815264 0.572989
v 1.414457 2.202471 0.763623
v 1.018348 2.663249 -0.364925
v 1.106435 2.641661 -0.160536
v 1.071009 2.650706 -0.144313
v 1.383832 2.210291 0.777648
v 0.982921 2.672294 -0.348701
v 1.269626 1.957065 0.577500
v 1.234200 1.966110 0.593723
v 1.313413 2.130869 0.674839
v 1.348839 2.121825 0.658616
v 1.346280 2.096462 0.642512
v 1.289593 1.978557 0.584464
v 1.236454 1.992125 0.608799
v 1.293141 2.110030 0.666847
v 1.177873 1.737803 0.502130
v 1.144416 1.746345 0.517451
v 1.419709 2.318942 0.799359
v 1.453166 2.310400 0.784037
v 1.424895 2.237950 0.745660
v 1.218078 1.807781 0.533875
v 1.172384 1.819447 0.554800
v 1.379200 2.249616 0.766586
v 1.326668 2.007804 0.665299
v 1.285154 2.018403 0.684310
v 1.385508 1.715121 1.072537
v 1.377200 1.682143 1.054068
v 1.405270 1.674977 1.041213
v 1.427022 1.704522 1.053526
v 1.468719 1.791249 1.096225
v 1.423630 1.799869 0.992960
v 1.477027 1.824226 1.114694
v 1.382116 1.810468 1.011971
v 1.448956 1.831393 1.127548
v 1.427205 1.801848 1.115236
v 1.305820 1.964440 0.643950
v 1.284068 1.934895 0.631637
v 1.275760 1.901918 0.613168
v 1.255998 1.942062 0.644492
v 1.264306 1.975039 0.662961
v 1.234246 1.912517 0.632179
v 1.306003 2.061767 0.705660
v 1.327754 2.091312 0.717972
v 1.336062 2.124289 0.736441
v 1.355825 2.084145 0.705118
v 1.347517 2.051167 0.686649
v 1.377576 2.113690 0.717430
v 1.444478 1.843233 1.014309
v 1.452786 1.876210 1.032778
v 1.361268 1.767105 0.990622
v 1.352960 1.734127 0.972153
v 1.381030 1.726960 0.959298
v 1.402781 1.756505 0.971611
v 1.424716 1.883377 1.045633
v 1.402964 1.853832 1.033320
v 1.447870 1.747885 1.074875
v 1.406356 1.758485 1.093886
v 1.390085 1.785536 1.054830
v 1.355097 1.693927 1.007048
v 1.462991 1.827810 1.121121
v 1.474889 1.864427 1.079799
v 1.437446 1.726203 1.064201
v 1.388781 1.685327 0.991622
v 1.441205 1.873027 1.095224
v 1.415103 1.837573 1.080449
v 1.414883 1.720781 1.006397
v 1.416781 1.780166 1.104561
v 1.439901 1.772817 1.032017
v 1.381354 1.698632 1.063303
v 1.472872 1.807738 1.105459
v 1.416146 1.689749 1.047370
v 1.438081 1.816621 1.121392
v 1.391235 1.678560 1.047641
v 1.458294 1.769567 1.085550
v 1.395932 1.736803 1.083212
v 1.464919 1.824854 1.057636
v 1.365067 1.733500 1.029211
v 1.413840 1.868604 1.039477
v 1.448632 1.859721 1.023544
v 1.391906 1.741733 0.965454
v 1.357114 1.750616 0.981387
v 1.366995 1.730544 0.965725
v 1.413206 1.778187 0.982285
v 1.371692 1.788786 1.001297
v 1.392540 1.832150 1.022646
v 1.438751 1.879794 1.039206
v 1.434054 1.821551 1.003635
v 1.427392 1.746799 1.019207
v 1.360082 1.713713 1.018129
v 1.458047 1.868727 1.087511
v 1.452410 1.798836 1.044826
v 1.401832 1.703054 0.999010
v 1.402594 1.811555 1.067639
v 1.377576 1.759518 1.042020
v 1.428154 1.855300 1.087837
v 1.469904 1.844640 1.068717
v 1.371939 1.689627 0.999335
vn -0.3961 -0.8238 -0.4056
vn 0.8856 -0.2261 -0.4056
vn 0.3961 0.8238 0.4056
vn -0.8856 0.2261 0.4056
vn -0.4627 -0.5043 -0.7291
vn 0.2458 0.9693 -0.0036
vn 0.7041 -0.4866 -0.5172
vn 0.9092 -0.1048 -0.4029
vn -0.9669 -0.0600 0.2481
vn -0.7041 0.4866 0.5172
vn -0.9360 0.1622 0.3125
vn 0.8218 -0.2866 -0.4924
vn -0.8486 0.3440 0.4020
vn 0.9669 0.0600 -0.2481
vn -0.2898 -0.9516 -0.1023
vn -0.2883 0.4169 -0.8620
vn -0.1930 0.6152 -0.7644
vn 0.9107 -0.2961 -0.2880
vn -0.8435 0.1518 0.5153
vn 0.3829 0.1348 -0.9139
vn -0.8203 0.4421 -0.3629
vn -0.7348 0.6198 -0.2753
vn 0.4684 0.3126 -0.8264
vn 0.1322 -0.7145 0.6870
vn 0.3363 -0.2901 0.8960
vn 0.9698 -0.1283 -0.2072
vn -0.7518 0.3113 0.5812
vn 0.8790 -0.4549 -0.1426
vn -0.7846 -0.0302 0.6193
vn -0.7177 0.1089 0.6878
vn 0.9459 -0.3158 -0.0741
vn 0.2424 -0.5198 0.8192
vn 0.9044 -0.2737 -0.3274
vn -0.8592 0.1766 0.4803
vn 0.8159 -0.4486 -0.3649
vn 0.4550 0.5974 0.6604
vn -0.9058 -0.0090 0.4235
vn -0.7908 0.3833 0.4772
vn 0.9461 -0.0602 -0.3182
vn 0.7908 -0.3833 -0.4772
vn -0.9461 0.0602 0.3182
vn 0.2440 -0.5164 0.8208
vn 0.9019 -0.2662 -0.3401
vn -0.8639 0.1847 0.4686
vn 0.2408 -0.5233 0.8175
vn 0.8592 -0.1766 -0.4803
vn -0.9698 0.1283 0.2072
vn 0.2898 0.9516 0.1023
vn 0.7518 -0.3113 -0.5812
vn -0.9044 0.2737 0.3274
vn -0.8159 0.4486 0.3649
vn 0.9058 0.0090 -0.4235
vn -0.4550 -0.5974 -0.6604
vt 0.375000 0.000000
vt 0.625000 0.000000
vt 0.625000 0.250000
vt 0.375000 0.250000
vt 0.416492 0.285547
vt 0.586959 0.285547
vt 0.599288 0.375000
vt 0.586959 0.464453
vt 0.416492 0.464453
vt 0.375000 0.500000
vt 0.625000 0.500000
vt 0.625000 0.750000
vt 0.375000 0.750000
vt 0.416492 0.785547
vt 0.586959 0.785547
vt 0.599288 0.875000
vt 0.586959 0.964453
vt 0.416492 0.964453
vt 0.750000 0.500000
vt 0.875000 0.500000
vt 0.875000 0.750000
vt 0.750000 0.750000
vt 0.625000 0.375000
vt 0.625000 1.000000
vt 0.625000 0.875000
vt 0.404493 0.526452
vt 0.404493 0.409799
vt 0.385054 0.278321
vt 0.385054 0.253739
vt 0.385054 0.719705
vt 0.385054 0.490554
vt 0.406566 0.456507
vt 0.406566 0.307442
vt 0.406566 0.737643
vt 0.406566 0.759188
vt 0.387077 0.287004
vt 0.387077 0.295324
vt 0.387077 0.708826
vt 0.387077 0.499920
vt 0.404493 0.445705
vt 0.404493 0.477824
vt 0.404493 0.701209
vt 0.404493 0.722332
vt 0.404493 0.316202
vt 0.404493 0.684199
vt 0.404493 0.743295
vt 0.404493 0.467121
vt 0.404493 0.413585
vt 0.404493 0.578956
vt 0.404493 0.680087
vt 0.404493 0.718039
vt 0.404493 0.713747
vt 0.404493 0.709454
vt 0.404493 0.705162
vt 0.404493 0.674134
vt 0.404493 0.643105
vt 0.404493 0.389768
vt 0.404493 0.369737
vt 0.404493 0.380699
vt 0.404493 0.391661
vt 0.404493 0.402623
vt 0.404493 0.369737
vt 0.404493 0.408063
vt 0.404493 0.338126
vt 0.404493 0.704534
vt 0.404493 0.692784
vt 0.404493 0.722332
vt 0.404493 0.681592
vt 0.404493 0.734710
vt 0.404493 0.477824
vt 0.404493 0.415189
vt 0.404493 0.445196
s 0
f 22/1/1 12/2/1 13/3/1 21/4/1
f 26/5/2 4/6/2 9/7/2 8/8/2 25/9/2
f 24/10/3 17/11/3 18/12/3 23/13/3
f 28/14/4 6/15/4 10/16/4 2/17/4 27/18/4
f 16/19/5 13/20/5 12/21/5 20/22/5
f 17/11/6 16/19/6 20/22/6 18/12/6
f 21/4/7 13/3/7 4/6/7 26/5/7
f 8/8/8 9/7/8 16/23/8 17/11/8
f 12/24/9 22/1/9 27/18/9 2/17/9
f 23/13/10 18/12/10 6/15/10 28/14/10
f 2/17/11 10/16/11 20/25/11 12/24/11
f 9/7/12 4/6/12 13/3/12 16/23/12
f 10/16/13 6/15/13 18/12/13 20/25/13
f 24/10/14 25/9/14 8/8/14 17/11/14
f 110/26/15 76/27/15 41/27/15 86/26/15
f 29/28/16 30/29/16 22/1/16 21/4/16
f 31/30/17 32/31/17 24/10/17 23/13/17
f 33/32/18 34/33/18 26/5/18 25/9/18
f 35/34/19 36/35/19 28/14/19 27/18/19
f 34/33/20 29/28/20 21/4/20 26/5/20
f 30/29/21 35/34/21 27/18/21 22/1/21
f 36/35/22 31/30/22 23/13/22 28/14/22
f 32/31/23 33/32/23 25/9/23 24/10/23
f 14/36/24 11/37/24 30/29/24 29/28/24
f 19/38/25 15/39/25 32/31/25 31/30/25
f 109/40/26 74/41/26 45/41/26 83/40/26
f 108/42/27 78/43/27 48/43/27 85/42/27
f 3/44/28 14/36/28 29/28/28 34/33/28
f 11/37/29 1/45/29 35/34/29 30/29/29
f 5/46/30 19/38/30 31/30/30 36/35/30
f 15/39/31 7/47/31 33/32/31 32/31/31
f 43/48/32 83/40/32 45/41/32 73/49/32 47/50/32 85/42/32 48/43/32 80/51/32 70/52/32 88/53/32 39/54/32 82/55/32 40/56/32 86/26/32 41/27/32 84/57/32 42/58/32 75/59/32 69/60/32 87/61/32
f 79/58/33 101/59/33 75/59/33 42/58/33
f 107/53/34 90/54/34 39/54/34 88/53/34
f 106/51/34 71/52/34 70/52/34 80/51/34
f 105/57/35 79/58/35 42/58/35 84/57/35
f 104/61/33 89/48/33 43/48/33 87/61/33
f 103/49/36 77/50/36 47/50/36 73/49/36
f 102/55/37 72/56/37 40/56/37 82/55/37
f 49/62/32 50/63/32 51/64/32
f 52/56/32 53/65/32 54/66/32
f 55/67/32 56/68/32 57/69/32
f 58/70/32 59/71/32 60/72/32
f 67/50/38 56/68/38 55/67/38 68/43/38 91/42/38
f 58/70/39 62/41/39 92/40/39 61/48/39 59/71/39
f 49/62/40 66/58/40 93/57/40 65/27/40 50/63/40
f 63/54/41 53/65/41 52/56/41 64/56/41 94/55/41
f 14/36/42 3/44/42 51/64/42 50/63/42 52/56/42 54/66/42 1/45/42 11/37/42
f 52/56/1 50/63/1 65/27/1 95/26/1 64/56/1
f 7/47/43 60/72/43 59/71/43 37/60/43 49/62/43 51/64/43 3/44/43 34/33/43 33/32/43
f 49/62/2 37/60/2 44/60/2 96/59/2 66/58/2
f 38/52/4 53/65/4 63/54/4 97/53/4 46/52/4
f 1/45/44 54/66/44 53/65/44 38/52/44 55/67/44 57/69/44 5/46/44 36/35/44 35/34/44
f 55/67/4 38/52/4 46/52/4 98/51/4 68/43/4
f 57/69/45 56/68/45 58/70/45 60/72/45 7/47/45 15/39/45 19/38/45 5/46/45
f 58/70/3 56/68/3 67/50/3 99/49/3 62/41/3
f 37/60/2 59/71/2 61/48/2 100/61/2 44/60/2
f 101/59/33 81/60/33 69/60/33 75/59/33
f 66/58/46 96/59/46 101/59/46 79/58/46
f 96/59/46 44/60/46 81/60/46 101/59/46
f 90/54/37 102/55/37 82/55/37 39/54/37
f 63/54/47 94/55/47 102/55/47 90/54/47
f 94/55/47 64/56/47 72/56/47 102/55/47
f 74/41/36 103/49/36 73/49/36 45/41/36
f 62/41/48 99/49/48 103/49/48 74/41/48
f 99/49/48 67/50/48 77/50/48 103/49/48
f 81/60/33 104/61/33 87/61/33 69/60/33
f 44/60/46 100/61/46 104/61/46 81/60/46
f 100/61/46 61/48/46 89/48/46 104/61/46
f 76/27/35 105/57/35 84/57/35 41/27/35
f 65/27/49 93/57/49 105/57/49 76/27/49
f 93/57/49 66/58/49 79/58/49 105/57/49
f 78/43/34 106/51/34 80/51/34 48/43/34
f 68/43/50 98/51/50 106/51/50 78/43/50
f 98/51/50 46/52/50 71/52/50 106/51/50
f 71/52/34 107/53/34 88/53/34 70/52/34
f 46/52/50 97/53/50 107/53/50 71/52/50
f 97/53/50 63/54/50 90/54/50 107/53/50
f 77/50/27 108/42/27 85/42/27 47/50/27
f 67/50/51 91/42/51 108/42/51 77/50/51
f 91/42/51 68/43/51 78/43/51 108/42/51
f 89/48/26 109/40/26 83/40/26 43/48/26
f 61/48/52 92/40/52 109/40/52 89/48/52
f 92/40/52 62/41/52 74/41/52 109/40/52
f 72/56/15 110/26/15 86/26/15 40/56/15
f 64/56/53 95/26/53 110/26/53 72/56/53
f 95/26/53 65/27/53 76/27/53 110/26/53
