# Blender 4.5.3 LTS
# www.blender.org
o Phone.svg
v 0.239701 -0.213234 -0.062979
v 0.234219 -0.209934 -0.064252
v 0.228485 -0.207401 -0.065507
v 0.222566 -0.205624 -0.066731
v 0.216527 -0.204594 -0.067915
v 0.210437 -0.204303 -0.069045
v 0.204362 -0.204739 -0.070112
v 0.198369 -0.205895 -0.071104
v 0.192525 -0.207761 -0.072009
v 0.186896 -0.210327 -0.072815
v 0.181549 -0.213585 -0.073513
v 0.176552 -0.217524 -0.074090
v 0.171971 -0.222135 -0.074534
v 0.165385 -0.229612 -0.075102
v 0.158798 -0.237089 -0.075670
v 0.152212 -0.244565 -0.076239
v 0.145625 -0.252042 -0.076807
v 0.139039 -0.259519 -0.077375
v 0.132452 -0.266995 -0.077943
v 0.125866 -0.274472 -0.078511
v 0.119279 -0.281949 -0.079079
v 0.112693 -0.289426 -0.079647
v 0.106106 -0.296902 -0.080215
v 0.099520 -0.304379 -0.080784
v 0.092933 -0.311856 -0.081352
v 0.089313 -0.316468 -0.081622
v 0.086257 -0.321371 -0.081765
v 0.083771 -0.326513 -0.081784
v 0.081858 -0.331844 -0.081684
v 0.080523 -0.337314 -0.081466
v 0.079770 -0.342873 -0.081136
v 0.079603 -0.348471 -0.080696
v 0.080027 -0.354056 -0.080150
v 0.081045 -0.359578 -0.079501
v 0.082662 -0.364988 -0.078752
v 0.084883 -0.370235 -0.077908
v 0.087712 -0.375268 -0.076971
v 0.134503 -0.438655 -0.063144
v 0.188077 -0.493682 -0.048788
v 0.247481 -0.540153 -0.034092
v 0.311762 -0.577869 -0.019246
v 0.379966 -0.606635 -0.004439
v 0.451142 -0.626252 0.010139
v 0.524336 -0.636523 0.024298
v 0.598596 -0.637251 0.037848
v 0.672967 -0.628239 0.050600
v 0.746498 -0.609289 0.062365
v 0.818236 -0.580204 0.072952
v 0.887227 -0.540787 0.082172
v 0.891894 -0.537306 0.082727
v 0.896094 -0.533388 0.083161
v 0.899809 -0.529082 0.083474
v 0.903023 -0.524436 0.083667
v 0.905720 -0.519497 0.083742
v 0.907881 -0.514312 0.083699
v 0.909490 -0.508931 0.083539
v 0.910531 -0.503399 0.083263
v 0.910986 -0.497766 0.082872
v 0.910838 -0.492079 0.082367
v 0.910071 -0.486385 0.081750
v 0.908668 -0.480733 0.081020
v 0.905736 -0.471285 0.079693
v 0.902804 -0.461838 0.078367
v 0.899872 -0.452391 0.077040
v 0.896940 -0.442944 0.075714
v 0.894008 -0.433496 0.074387
v 0.891076 -0.424049 0.073060
v 0.888144 -0.414602 0.071734
v 0.885212 -0.405154 0.070407
v 0.882280 -0.395707 0.069081
v 0.879349 -0.386260 0.067754
v 0.876417 -0.376813 0.066428
v 0.873485 -0.367366 0.065101
v 0.871202 -0.361333 0.064180
v 0.868261 -0.355751 0.063176
v 0.864719 -0.350653 0.062105
v 0.860633 -0.346076 0.060978
v 0.856060 -0.342053 0.059809
v 0.851057 -0.338621 0.058612
v 0.845683 -0.335814 0.057400
v 0.839993 -0.333667 0.056186
v 0.834046 -0.332215 0.054983
v 0.827899 -0.331494 0.053806
v 0.821608 -0.331538 0.052667
v 0.815232 -0.332383 0.051580
v 0.804205 -0.334520 0.049756
v 0.793178 -0.336657 0.047933
v 0.782151 -0.338795 0.046109
v 0.771124 -0.340932 0.044286
v 0.760097 -0.343069 0.042463
v 0.749070 -0.345206 0.040639
v 0.738043 -0.347344 0.038816
v 0.727016 -0.349481 0.036992
v 0.715989 -0.351618 0.035169
v 0.704962 -0.353756 0.033345
v 0.693935 -0.355893 0.031522
v 0.682908 -0.358030 0.029698
v 0.677404 -0.359414 0.028815
v 0.672148 -0.361362 0.028024
v 0.667176 -0.363840 0.027329
v 0.662518 -0.366813 0.026733
v 0.658210 -0.370243 0.026238
v 0.654284 -0.374097 0.025849
v 0.650774 -0.378338 0.025568
v 0.647712 -0.382931 0.025398
v 0.645134 -0.387840 0.025342
v 0.643071 -0.393031 0.025403
v 0.641557 -0.398467 0.025585
v 0.640626 -0.404113 0.025890
v 0.639823 -0.411026 0.026326
v 0.639021 -0.417939 0.026761
v 0.638218 -0.424853 0.027196
v 0.637416 -0.431766 0.027631
v 0.636613 -0.438679 0.028067
v 0.635811 -0.445593 0.028502
v 0.635008 -0.452506 0.028937
v 0.634206 -0.459420 0.029372
v 0.633403 -0.466333 0.029807
v 0.632601 -0.473246 0.030243
v 0.631798 -0.480160 0.030678
v 0.630996 -0.487073 0.031113
v 0.606016 -0.489959 0.026818
v 0.581021 -0.491376 0.022397
v 0.556073 -0.491339 0.017862
v 0.531238 -0.489859 0.013226
v 0.506578 -0.486951 0.008502
v 0.482157 -0.482628 0.003703
v 0.458039 -0.476903 -0.001160
v 0.434287 -0.469788 -0.006072
v 0.410966 -0.461298 -0.011022
v 0.388138 -0.451445 -0.015997
v 0.365868 -0.440242 -0.020983
v 0.344219 -0.427703 -0.025970
v 0.346349 -0.421073 -0.026140
v 0.348479 -0.414442 -0.026310
v 0.350609 -0.407812 -0.026481
v 0.352739 -0.401181 -0.026651
v 0.354869 -0.394550 -0.026821
v 0.356999 -0.387920 -0.026991
v 0.359129 -0.381289 -0.027162
v 0.361259 -0.374659 -0.027332
v 0.363389 -0.368028 -0.027502
v 0.365519 -0.361397 -0.027673
v 0.367649 -0.354767 -0.027843
v 0.369780 -0.348136 -0.028013
v 0.371247 -0.342581 -0.028213
v 0.372101 -0.336996 -0.028528
v 0.372355 -0.331424 -0.028950
v 0.372025 -0.325910 -0.029473
v 0.371126 -0.320499 -0.030091
v 0.369673 -0.315235 -0.030798
v 0.367681 -0.310163 -0.031586
v 0.365165 -0.305328 -0.032449
v 0.362141 -0.300773 -0.033381
v 0.358623 -0.296544 -0.034376
v 0.354627 -0.292685 -0.035426
v 0.350167 -0.289240 -0.036525
v 0.347995 -0.287747 -0.037045
v 0.341989 -0.283618 -0.038483
v 0.332917 -0.277380 -0.040656
v 0.321543 -0.269559 -0.043379
v 0.308636 -0.260683 -0.046469
v 0.294960 -0.251278 -0.049744
v 0.281283 -0.241871 -0.053019
v 0.268371 -0.232988 -0.056111
v 0.256991 -0.225156 -0.058837
v 0.247908 -0.218902 -0.061012
v 0.241889 -0.214752 -0.062454
v 0.239701 -0.213234 -0.062979
v 0.239701 -0.213234 -0.062979
v 0.239701 -0.213234 -0.062979
v 0.239701 -0.213234 -0.062979
v 0.239701 -0.213234 -0.062979
v 0.239701 -0.213234 -0.062979
v 0.239701 -0.213234 -0.062979
v 0.239701 -0.213234 -0.062979
v 0.239701 -0.213234 -0.062979
v 0.239701 -0.213234 -0.062979
v 0.239701 -0.213234 -0.062979
v 0.239701 -0.213234 -0.062979
v 0.239701 -0.213234 -0.062979
v 0.239701 -0.213234 -0.062979
v 0.239701 -0.213234 -0.062979
v 0.239701 -0.213234 -0.062979
v 0.239701 -0.213234 -0.062979
v 0.239701 -0.213234 -0.062979
v 0.239701 -0.213234 -0.062979
v 0.239701 -0.213234 -0.062979
v 0.239701 -0.213234 -0.062979
v 0.239701 -0.213234 -0.062979
v 0.239701 -0.213234 -0.062979
v 0.239701 -0.213234 -0.062979
vn -0.5305 0.8312 -0.1662
vn 0.1781 -0.0824 -0.9806
s 0
f 1//1 181//1 178//1
f 158//2 157//2 145//2
f 157//2 156//2 146//2
f 156//2 155//2 154//2
f 154//2 153//2 152//2
f 152//2 151//2 150//2
f 150//2 149//2 146//2
f 149//2 148//2 146//2
f 148//2 147//2 146//2
f 146//2 145//2 157//2
f 145//2 144//2 158//2
f 158//2 144//2 159//2
f 144//2 143//2 159//2
f 159//2 143//2 160//2
f 154//2 152//2 146//2
f 152//2 150//2 146//2
f 156//2 154//2 146//2
f 143//2 142//2 160//2
f 142//2 141//2 160//2
f 160//2 141//2 161//2
f 141//2 140//2 161//2
f 140//2 139//2 161//2
f 162//2 161//2 139//2
f 162//2 139//2 138//2
f 138//2 137//2 162//2
f 166//2 16//2 15//2
f 163//2 162//2 38//2
f 164//2 163//2 19//2
f 16//2 166//2 165//2
f 137//2 136//2 38//2
f 38//2 162//2 137//2
f 136//2 135//2 38//2
f 165//2 164//2 17//2
f 164//2 18//2 17//2
f 18//2 164//2 19//2
f 135//2 134//2 38//2
f 134//2 133//2 39//2
f 167//2 166//2 15//2
f 168//2 167//2 14//2
f 165//2 17//2 16//2
f 118//2 117//2 48//2
f 117//2 116//2 92//2
f 93//2 116//2 115//2
f 119//2 118//2 48//2
f 116//2 93//2 92//2
f 94//2 115//2 114//2
f 120//2 119//2 48//2
f 115//2 94//2 93//2
f 4//2 3//2 2//2
f 6//2 5//2 4//2
f 8//2 7//2 4//2
f 7//2 6//2 4//2
f 10//2 9//2 12//2
f 9//2 8//2 12//2
f 12//2 11//2 10//2
f 14//2 13//2 168//2
f 13//2 12//2 4//2
f 15//2 14//2 167//2
f 13//2 4//2 2//2
f 110//2 109//2 97//2
f 109//2 108//2 104//2
f 98//2 109//2 100//2
f 108//2 107//2 106//2
f 106//2 105//2 104//2
f 104//2 103//2 109//2
f 103//2 102//2 109//2
f 102//2 101//2 100//2
f 100//2 99//2 98//2
f 98//2 97//2 109//2
f 97//2 96//2 110//2
f 111//2 96//2 95//2
f 96//2 111//2 110//2
f 117//2 92//2 48//2
f 102//2 100//2 109//2
f 106//2 104//2 108//2
f 95//2 94//2 113//2
f 112//2 111//2 95//2
f 91//2 90//2 67//2
f 90//2 89//2 68//2
f 68//2 89//2 69//2
f 92//2 91//2 48//2
f 120//2 48//2 47//2
f 113//2 112//2 95//2
f 114//2 113//2 94//2
f 89//2 88//2 69//2
f 90//2 68//2 67//2
f 88//2 87//2 70//2
f 69//2 88//2 70//2
f 86//2 85//2 72//2
f 85//2 84//2 73//2
f 86//2 72//2 71//2
f 87//2 86//2 71//2
f 121//2 120//2 47//2
f 84//2 83//2 82//2
f 82//2 81//2 80//2
f 80//2 79//2 82//2
f 79//2 78//2 82//2
f 78//2 77//2 74//2
f 77//2 76//2 74//2
f 76//2 75//2 74//2
f 74//2 73//2 82//2
f 73//2 72//2 85//2
f 82//2 73//2 84//2
f 70//2 87//2 71//2
f 82//2 78//2 74//2
f 91//2 67//2 48//2
f 67//2 66//2 48//2
f 66//2 65//2 48//2
f 65//2 64//2 48//2
f 64//2 63//2 49//2
f 48//2 64//2 49//2
f 122//2 121//2 45//2
f 62//2 61//2 49//2
f 61//2 60//2 50//2
f 63//2 62//2 49//2
f 61//2 50//2 49//2
f 60//2 59//2 58//2
f 58//2 57//2 56//2
f 56//2 55//2 54//2
f 54//2 53//2 50//2
f 53//2 52//2 50//2
f 52//2 51//2 50//2
f 47//2 46//2 121//2
f 122//2 45//2 123//2
f 46//2 45//2 121//2
f 45//2 44//2 124//2
f 44//2 43//2 126//2
f 43//2 42//2 128//2
f 44//2 125//2 124//2
f 42//2 41//2 130//2
f 41//2 40//2 133//2
f 40//2 39//2 133//2
f 39//2 38//2 134//2
f 38//2 37//2 22//2
f 37//2 36//2 25//2
f 38//2 22//2 21//2
f 36//2 35//2 34//2
f 34//2 33//2 32//2
f 32//2 31//2 30//2
f 30//2 29//2 26//2
f 29//2 28//2 26//2
f 28//2 27//2 26//2
f 26//2 25//2 36//2
f 25//2 24//2 37//2
f 24//2 23//2 37//2
f 34//2 32//2 36//2
f 32//2 30//2 36//2
f 26//2 36//2 30//2
f 41//2 133//2 132//2
f 163//2 38//2 19//2
f 45//2 124//2 123//2
f 125//2 44//2 126//2
f 58//2 56//2 50//2
f 56//2 54//2 50//2
f 60//2 58//2 50//2
f 23//2 22//2 37//2
f 21//2 20//2 38//2
f 20//2 19//2 38//2
f 126//2 43//2 127//2
f 127//2 43//2 128//2
f 13//2 2//2 1//2
f 168//2 13//2 1//2
f 12//2 8//2 4//2
f 129//2 128//2 42//2
f 130//2 129//2 42//2
f 131//2 130//2 41//2
f 132//2 131//2 41//2
f 1//1 192//1 191//1
f 171//1 170//1 169//1
f 169//2 168//2 1//2
f 191//1 190//1 189//1
f 171//1 169//1 1//1
f 191//1 189//1 188//1
f 172//1 171//1 1//1
f 191//1 188//1 187//1
f 173//1 172//1 1//1
f 191//1 187//1 186//1
f 174//1 173//1 1//1
f 191//1 186//1 185//1
f 175//1 174//1 1//1
f 191//1 185//1 184//1
f 176//1 175//1 1//1
f 191//1 184//1 183//1
f 177//1 176//1 1//1
f 191//1 183//1 182//1
f 178//1 177//1 1//1
f 180//1 179//1 178//1
f 191//1 182//1 181//1
f 1//1 191//1 181//1
f 181//1 180//1 178//1
