# Blender 4.5.3 LTS
# www.blender.org
o UpWork.svg
v -0.220042 0.444399 -0.032091
v -0.227110 0.441550 -0.030664
v -0.234325 0.439215 -0.029294
v -0.241676 0.437379 -0.027980
v -0.249155 0.436029 -0.026721
v -0.256752 0.435152 -0.025516
v -0.264458 0.434733 -0.024364
v -0.272262 0.434759 -0.023266
v -0.280155 0.435216 -0.022219
v -0.288128 0.436091 -0.021224
v -0.296172 0.437369 -0.020279
v -0.304276 0.439038 -0.019384
v -0.312432 0.441082 -0.018539
v -0.313014 0.443579 -0.018832
v -0.313596 0.446076 -0.019124
v -0.314179 0.448573 -0.019417
v -0.314761 0.451071 -0.019709
v -0.315343 0.453568 -0.020002
v -0.315925 0.456065 -0.020295
v -0.316508 0.458562 -0.020587
v -0.317090 0.461059 -0.020880
v -0.317672 0.463556 -0.021172
v -0.318254 0.466053 -0.021465
v -0.318837 0.468550 -0.021757
v -0.319419 0.471047 -0.022050
v -0.319441 0.471145 -0.022061
v -0.319463 0.471243 -0.022073
v -0.319486 0.471341 -0.022084
v -0.319508 0.471439 -0.022096
v -0.319531 0.471537 -0.022108
v -0.319553 0.471634 -0.022119
v -0.319575 0.471732 -0.022131
v -0.319598 0.471830 -0.022142
v -0.319620 0.471928 -0.022154
v -0.319642 0.472026 -0.022165
v -0.319665 0.472124 -0.022177
v -0.319687 0.472221 -0.022188
v -0.321682 0.480582 -0.023161
v -0.323411 0.489767 -0.024296
v -0.324682 0.499573 -0.025588
v -0.325303 0.509797 -0.027035
v -0.325084 0.520238 -0.028633
v -0.323834 0.530692 -0.030379
v -0.321360 0.540957 -0.032270
v -0.317471 0.550831 -0.034301
v -0.311976 0.560110 -0.036470
v -0.304684 0.568592 -0.038774
v -0.295402 0.576075 -0.041209
v -0.283941 0.582356 -0.043771
v -0.274352 0.585861 -0.045652
v -0.264586 0.587989 -0.047351
v -0.254764 0.588787 -0.048858
v -0.245005 0.588301 -0.050164
v -0.235428 0.586578 -0.051259
v -0.226153 0.583664 -0.052132
v -0.217300 0.579606 -0.052774
v -0.208987 0.574450 -0.053174
v -0.201336 0.568244 -0.053324
v -0.194464 0.561033 -0.053212
v -0.188492 0.552864 -0.052830
v -0.183540 0.543784 -0.052166
v -0.179844 0.534166 -0.051245
v -0.177518 0.524394 -0.050107
v -0.176517 0.514586 -0.048776
v -0.176798 0.504862 -0.047276
v -0.178319 0.495340 -0.045632
v -0.181036 0.486142 -0.043868
v -0.184906 0.477385 -0.042006
v -0.189886 0.469189 -0.040072
v -0.195933 0.461673 -0.038090
v -0.203003 0.454956 -0.036083
v -0.211054 0.449159 -0.034075
v -0.220042 0.444399 -0.032091
v -0.220042 0.444399 -0.032091
v -0.220042 0.444399 -0.032091
v -0.220042 0.444399 -0.032091
v -0.220042 0.444399 -0.032091
v -0.220042 0.444399 -0.032091
v -0.220042 0.444399 -0.032091
v -0.220042 0.444399 -0.032091
v -0.220042 0.444399 -0.032091
v -0.220042 0.444399 -0.032091
v -0.220042 0.444399 -0.032091
v -0.220042 0.444399 -0.032091
v -0.220042 0.444399 -0.032091
v -0.220042 0.444399 -0.032091
v -0.220042 0.444399 -0.032091
v -0.220042 0.444399 -0.032091
v -0.220042 0.444399 -0.032091
v -0.220042 0.444399 -0.032091
v -0.220042 0.444399 -0.032091
v -0.220042 0.444399 -0.032091
v -0.220042 0.444399 -0.032091
v -0.220042 0.444399 -0.032091
v -0.220042 0.444399 -0.032091
v -0.220042 0.444399 -0.032091
v -0.316184 0.652266 -0.049709
v -0.331564 0.644376 -0.046352
v -0.345502 0.635072 -0.042986
v -0.357969 0.624431 -0.039627
v -0.368936 0.612528 -0.036291
v -0.378373 0.599439 -0.032993
v -0.386253 0.585237 -0.029748
v -0.392547 0.570000 -0.026571
v -0.397225 0.553802 -0.023479
v -0.400260 0.536719 -0.020486
v -0.401621 0.518825 -0.017607
v -0.401281 0.500197 -0.014859
v -0.399211 0.480910 -0.012257
v -0.412270 0.489436 -0.011691
v -0.425169 0.498431 -0.011219
v -0.437868 0.507834 -0.010836
v -0.450331 0.517588 -0.010540
v -0.462518 0.527633 -0.010325
v -0.474391 0.537908 -0.010190
v -0.485913 0.548356 -0.010131
v -0.497044 0.558916 -0.010143
v -0.507747 0.569530 -0.010224
v -0.517983 0.580137 -0.010370
v -0.527714 0.590679 -0.010578
v -0.536903 0.601097 -0.010843
v -0.542672 0.598530 -0.009643
v -0.548441 0.595963 -0.008442
v -0.554211 0.593397 -0.007242
v -0.559980 0.590830 -0.006042
v -0.565749 0.588263 -0.004841
v -0.571519 0.585697 -0.003641
v -0.577288 0.583130 -0.002440
v -0.583057 0.580563 -0.001240
v -0.588827 0.577997 -0.000039
v -0.594596 0.575430 0.001161
v -0.600365 0.572863 0.002361
v -0.606135 0.570297 0.003562
v -0.599133 0.555158 0.004845
v -0.592131 0.540019 0.006128
v -0.585129 0.524881 0.007411
v -0.578127 0.509742 0.008694
v -0.571126 0.494604 0.009977
v -0.564124 0.479465 0.011261
v -0.557122 0.464326 0.012544
v -0.550120 0.449188 0.013827
v -0.543118 0.434049 0.015110
v -0.536116 0.418910 0.016393
v -0.529114 0.403772 0.017676
v -0.522113 0.388633 0.018959
v -0.518652 0.379529 0.019837
v -0.516478 0.370292 0.020916
v -0.515549 0.361032 0.022175
v -0.515825 0.351859 0.023591
v -0.517266 0.342884 0.025142
v -0.519830 0.334218 0.026805
v -0.523478 0.325971 0.028558
v -0.528168 0.318252 0.030380
v -0.533861 0.311174 0.032247
v -0.540515 0.304845 0.034137
v -0.548091 0.299377 0.036028
v -0.556547 0.294880 0.037898
v -0.565585 0.291596 0.039667
v -0.574786 0.289605 0.041266
v -0.584038 0.288864 0.042685
v -0.593229 0.289329 0.043914
v -0.602247 0.290956 0.044944
v -0.610981 0.293701 0.045765
v -0.619319 0.297522 0.046370
v -0.627149 0.302374 0.046748
v -0.634360 0.308214 0.046890
v -0.640838 0.314999 0.046787
v -0.646473 0.322684 0.046430
v -0.651154 0.331226 0.045809
v -0.658155 0.346364 0.044526
v -0.665157 0.361503 0.043242
v -0.672159 0.376641 0.041959
v -0.679161 0.391780 0.040676
v -0.686163 0.406919 0.039393
v -0.693165 0.422057 0.038110
v -0.700166 0.437196 0.036827
v -0.707168 0.452335 0.035544
v -0.714170 0.467473 0.034261
v -0.721172 0.482612 0.032977
v -0.728174 0.497750 0.031694
v -0.735176 0.512889 0.030411
v -0.740951 0.510320 0.031613
v -0.746727 0.507750 0.032815
v -0.752503 0.505181 0.034016
v -0.758278 0.502611 0.035218
v -0.764054 0.500042 0.036420
v -0.769830 0.497472 0.037622
v -0.775606 0.494903 0.038823
v -0.781381 0.492333 0.040025
v -0.787157 0.489764 0.041227
v -0.792933 0.487194 0.042429
v -0.798708 0.484625 0.043630
v -0.804484 0.482055 0.044832
v -0.797482 0.466917 0.046115
v -0.790480 0.451778 0.047398
v -0.783478 0.436639 0.048681
v -0.776477 0.421501 0.049964
v -0.769475 0.406362 0.051248
v -0.762473 0.391223 0.052531
v -0.755471 0.376085 0.053814
v -0.748469 0.360946 0.055097
v -0.741467 0.345808 0.056380
v -0.734465 0.330669 0.057663
v -0.727464 0.315530 0.058946
v -0.720462 0.300392 0.060230
v -0.710777 0.282644 0.061525
v -0.699087 0.266661 0.062273
v -0.685627 0.252538 0.062491
v -0.670636 0.240367 0.062200
v -0.654350 0.230242 0.061419
v -0.637007 0.222258 0.060167
v -0.618843 0.216508 0.058463
v -0.600096 0.213085 0.056328
v -0.581002 0.212083 0.053781
v -0.561799 0.213597 0.050841
v -0.542725 0.217719 0.047527
v -0.524015 0.224544 0.043859
v -0.506456 0.233852 0.039981
v -0.490732 0.245207 0.036055
v -0.476925 0.258372 0.032128
v -0.465122 0.273111 0.028248
v -0.455405 0.289190 0.024461
v -0.447859 0.306372 0.020816
v -0.442568 0.324421 0.017359
v -0.439616 0.343102 0.014138
v -0.439087 0.362180 0.011200
v -0.441065 0.381418 0.008591
v -0.445635 0.400581 0.006361
v -0.452880 0.419433 0.004554
v -0.454053 0.421968 0.004339
v -0.455225 0.424503 0.004125
v -0.456398 0.427038 0.003910
v -0.457570 0.429573 0.003695
v -0.458742 0.432107 0.003480
v -0.459915 0.434642 0.003265
v -0.461087 0.437177 0.003050
v -0.462260 0.439712 0.002836
v -0.463432 0.442247 0.002621
v -0.464604 0.444781 0.002406
v -0.465777 0.447316 0.002191
v -0.466949 0.449851 0.001976
v -0.460257 0.444318 0.001861
v -0.453429 0.438835 0.001720
v -0.446471 0.433415 0.001550
v -0.439388 0.428074 0.001351
v -0.432185 0.422824 0.001121
v -0.424866 0.417681 0.000859
v -0.417437 0.412657 0.000564
v -0.409902 0.407769 0.000233
v -0.402267 0.403029 -0.000134
v -0.394536 0.398452 -0.000540
v -0.386715 0.394051 -0.000984
v -0.378808 0.389842 -0.001469
v -0.374599 0.371513 0.000687
v -0.370390 0.353185 0.002844
v -0.366181 0.334856 0.005000
v -0.361973 0.316527 0.007157
v -0.357764 0.298198 0.009314
v -0.353555 0.279869 0.011470
v -0.349346 0.261540 0.013627
v -0.345137 0.243211 0.015784
v -0.340928 0.224882 0.017940
v -0.336720 0.206553 0.020097
v -0.332511 0.188224 0.022254
v -0.328302 0.169895 0.024410
v -0.322393 0.172524 0.023181
v -0.316485 0.175152 0.021951
v -0.310576 0.177781 0.020722
v -0.304667 0.180410 0.019493
v -0.298758 0.183038 0.018263
v -0.292850 0.185667 0.017034
v -0.286941 0.188296 0.015804
v -0.281032 0.190924 0.014575
v -0.275124 0.193553 0.013346
v -0.269215 0.196182 0.012116
v -0.263306 0.198810 0.010887
v -0.257398 0.201439 0.009657
v -0.260456 0.214737 0.008093
v -0.263514 0.228035 0.006529
v -0.266571 0.241333 0.004965
v -0.269629 0.254631 0.003401
v -0.272687 0.267929 0.001837
v -0.275745 0.281227 0.000273
v -0.278803 0.294524 -0.001291
v -0.281861 0.307822 -0.002855
v -0.284919 0.321120 -0.004419
v -0.287977 0.334418 -0.005983
v -0.291034 0.347716 -0.007547
v -0.294092 0.361014 -0.009111
v -0.285335 0.359832 -0.010171
v -0.276538 0.359010 -0.011291
v -0.267708 0.358564 -0.012471
v -0.258850 0.358510 -0.013715
v -0.249969 0.358866 -0.015023
v -0.241069 0.359648 -0.016398
v -0.232157 0.360872 -0.017841
v -0.223237 0.362556 -0.019354
v -0.214314 0.364716 -0.020939
v -0.205394 0.367368 -0.022597
v -0.196481 0.370529 -0.024331
v -0.187582 0.374216 -0.026142
v -0.169499 0.383801 -0.030136
v -0.153305 0.395490 -0.034178
v -0.139087 0.409041 -0.038221
v -0.126931 0.424209 -0.042216
v -0.116923 0.440753 -0.046113
v -0.109150 0.458431 -0.049865
v -0.103698 0.476998 -0.053422
v -0.100652 0.496213 -0.056737
v -0.100100 0.515833 -0.059760
v -0.102128 0.535615 -0.062443
v -0.106821 0.555317 -0.064737
v -0.114267 0.574695 -0.066594
v -0.124233 0.592962 -0.067928
v -0.136251 0.609393 -0.068696
v -0.150080 0.623893 -0.068919
v -0.165478 0.636372 -0.068616
v -0.182204 0.646735 -0.067809
v -0.200016 0.654891 -0.066516
v -0.218673 0.660746 -0.064759
v -0.237934 0.664208 -0.062557
v -0.257557 0.665184 -0.059931
v -0.277301 0.663580 -0.056901
v -0.296924 0.659306 -0.053487
v -0.316184 0.652266 -0.049709
v -0.316184 0.652266 -0.049709
v -0.316184 0.652266 -0.049709
v -0.316184 0.652266 -0.049709
v -0.316184 0.652266 -0.049709
v -0.316184 0.652266 -0.049709
v -0.316184 0.652266 -0.049709
v -0.316184 0.652266 -0.049709
v -0.316184 0.652266 -0.049709
v -0.316184 0.652266 -0.049709
v -0.316184 0.652266 -0.049709
v -0.316184 0.652266 -0.049709
v -0.316184 0.652266 -0.049709
v -0.316184 0.652266 -0.049709
v -0.316184 0.652266 -0.049709
v -0.316184 0.652266 -0.049709
v -0.316184 0.652266 -0.049709
v -0.316184 0.652266 -0.049709
v -0.316184 0.652266 -0.049709
v -0.316184 0.652266 -0.049709
v -0.316184 0.652266 -0.049709
v -0.316184 0.652266 -0.049709
v -0.316184 0.652266 -0.049709
v -0.316184 0.652266 -0.049709
vn -0.1384 -0.1470 -0.9794
vn -0.4186 0.9049 -0.0767
s 0
f 169//1 168//1 206//1
f 271//1 263//1 272//1
f 341//2 337//2 336//2
f 8//1 7//1 292//1
f 110//1 109//1 244//1
f 109//1 253//1 252//1
f 249//1 109//1 250//1
f 252//1 251//1 109//1
f 251//1 250//1 109//1
f 249//1 248//1 109//1
f 248//1 247//1 109//1
f 247//1 246//1 109//1
f 246//1 245//1 109//1
f 245//1 244//1 109//1
f 244//1 243//1 110//1
f 243//1 242//1 110//1
f 242//1 241//1 111//1
f 242//1 111//1 110//1
f 112//1 111//1 241//1
f 112//1 241//1 113//1
f 114//1 113//1 241//1
f 115//1 114//1 241//1
f 116//1 115//1 139//1
f 115//1 241//1 140//1
f 138//1 117//1 116//1
f 117//1 138//1 137//1
f 117//1 137//1 118//1
f 118//1 137//1 136//1
f 119//1 118//1 136//1
f 119//1 136//1 126//1
f 120//1 119//1 124//1
f 120//1 124//1 123//1
f 122//1 121//1 120//1
f 123//1 122//1 120//1
f 124//1 119//1 125//1
f 241//1 240//1 143//1
f 138//1 116//1 139//1
f 125//1 119//1 126//1
f 240//1 239//1 143//1
f 239//1 238//1 143//1
f 127//1 126//1 136//1
f 139//1 115//1 140//1
f 238//1 237//1 144//1
f 128//1 127//1 135//1
f 127//1 136//1 135//1
f 237//1 236//1 144//1
f 140//1 241//1 141//1
f 129//1 128//1 135//1
f 236//1 235//1 144//1
f 130//1 129//1 134//1
f 141//1 241//1 142//1
f 235//1 234//1 144//1
f 142//1 241//1 143//1
f 131//1 130//1 134//1
f 129//1 135//1 134//1
f 234//1 233//1 144//1
f 134//1 133//1 132//1
f 132//1 131//1 134//1
f 233//1 232//1 144//1
f 232//1 231//1 145//1
f 230//1 229//1 145//1
f 229//1 228//1 145//1
f 231//1 230//1 145//1
f 238//1 144//1 143//1
f 228//1 227//1 146//1
f 227//1 226//1 147//1
f 228//1 146//1 145//1
f 226//1 225//1 148//1
f 225//1 224//1 150//1
f 226//1 148//1 147//1
f 224//1 223//1 151//1
f 223//1 222//1 152//1
f 222//1 221//1 153//1
f 221//1 220//1 154//1
f 154//1 220//1 155//1
f 220//1 219//1 155//1
f 219//1 218//1 156//1
f 156//1 218//1 157//1
f 218//1 217//1 157//1
f 217//1 216//1 157//1
f 158//1 216//1 215//1
f 215//1 214//1 159//1
f 159//1 214//1 160//1
f 214//1 213//1 160//1
f 213//1 212//1 161//1
f 160//1 213//1 161//1
f 212//1 211//1 162//1
f 211//1 210//1 163//1
f 212//1 162//1 161//1
f 210//1 209//1 164//1
f 209//1 208//1 165//1
f 210//1 164//1 163//1
f 208//1 207//1 166//1
f 207//1 206//1 167//1
f 208//1 166//1 165//1
f 206//1 205//1 169//1
f 205//1 204//1 170//1
f 205//1 170//1 169//1
f 204//1 203//1 171//1
f 162//1 211//1 163//1
f 216//1 158//1 157//1
f 150//1 224//1 151//1
f 227//1 147//1 146//1
f 144//1 232//1 145//1
f 215//1 159//1 158//1
f 204//1 171//1 170//1
f 203//1 202//1 172//1
f 203//1 172//1 171//1
f 202//1 201//1 173//1
f 202//1 173//1 172//1
f 201//1 200//1 174//1
f 201//1 174//1 173//1
f 200//1 199//1 175//1
f 200//1 175//1 174//1
f 199//1 198//1 176//1
f 199//1 176//1 175//1
f 198//1 197//1 177//1
f 178//1 196//1 195//1
f 196//1 178//1 197//1
f 187//1 195//1 188//1
f 195//1 187//1 179//1
f 189//1 195//1 194//1
f 148//1 225//1 149//1
f 195//1 189//1 188//1
f 190//1 194//1 191//1
f 194//1 193//1 192//1
f 194//1 192//1 191//1
f 149//1 225//1 150//1
f 194//1 190//1 189//1
f 151//1 223//1 152//1
f 178//1 195//1 179//1
f 177//1 197//1 178//1
f 153//1 152//1 222//1
f 198//1 177//1 176//1
f 187//1 186//1 179//1
f 154//1 153//1 221//1
f 186//1 185//1 179//1
f 185//1 184//1 180//1
f 179//1 185//1 180//1
f 156//1 155//1 219//1
f 184//1 183//1 180//1
f 182//1 181//1 180//1
f 183//1 182//1 180//1
f 164//1 209//1 165//1
f 166//1 207//1 167//1
f 168//1 167//1 206//1
f 254//1 253//1 289//1
f 254//1 289//1 255//1
f 289//1 288//1 256//1
f 255//1 289//1 256//1
f 287//1 286//1 257//1
f 286//1 285//1 258//1
f 257//1 286//1 258//1
f 288//1 287//1 257//1
f 256//1 288//1 257//1
f 285//1 284//1 259//1
f 258//1 285//1 259//1
f 260//1 259//1 283//1
f 283//1 259//1 284//1
f 262//1 261//1 281//1
f 261//1 260//1 282//1
f 262//1 272//1 263//1
f 260//1 283//1 282//1
f 272//1 262//1 279//1
f 263//1 270//1 269//1
f 266//1 265//1 264//1
f 264//1 263//1 269//1
f 270//1 263//1 271//1
f 264//1 268//1 267//1
f 282//1 281//1 261//1
f 281//1 280//1 262//1
f 280//1 279//1 262//1
f 279//1 278//1 274//1
f 278//1 277//1 276//1
f 278//1 276//1 275//1
f 266//1 264//1 267//1
f 268//1 264//1 269//1
f 278//1 275//1 274//1
f 279//1 274//1 273//1
f 279//1 273//1 272//1
f 40//1 109//1 108//1
f 108//1 107//1 41//1
f 107//1 106//1 42//1
f 108//1 41//1 40//1
f 106//1 105//1 43//1
f 105//1 104//1 44//1
f 106//1 43//1 42//1
f 104//1 103//1 45//1
f 103//1 102//1 45//1
f 104//1 45//1 44//1
f 102//1 101//1 46//1
f 101//1 100//1 47//1
f 102//1 46//1 45//1
f 100//1 99//1 47//1
f 99//1 98//1 48//1
f 41//1 107//1 42//1
f 43//1 105//1 44//1
f 46//1 101//1 47//1
f 47//1 99//1 48//1
f 49//1 48//1 98//1
f 50//1 49//1 97//1
f 49//1 98//1 97//1
f 51//1 50//1 324//1
f 52//1 51//1 323//1
f 50//1 97//1 324//1
f 53//1 52//1 321//1
f 51//1 324//1 323//1
f 54//1 53//1 320//1
f 55//1 54//1 319//1
f 52//1 323//1 322//1
f 56//1 55//1 319//1
f 52//1 322//1 321//1
f 311//1 63//1 62//1
f 313//1 312//1 61//1
f 312//1 311//1 62//1
f 313//1 61//1 60//1
f 315//1 314//1 59//1
f 314//1 313//1 60//1
f 315//1 59//1 58//1
f 317//1 316//1 57//1
f 316//1 315//1 58//1
f 317//1 57//1 56//1
f 319//1 318//1 56//1
f 318//1 317//1 56//1
f 321//1 320//1 53//1
f 320//1 319//1 54//1
f 62//1 61//1 312//1
f 316//1 58//1 57//1
f 60//1 59//1 314//1
f 327//2 326//2 325//2
f 325//1 324//1 97//1
f 329//2 328//2 327//2
f 325//2 97//2 348//2
f 330//2 329//2 327//2
f 325//2 348//2 347//2
f 331//2 330//2 327//2
f 325//2 347//2 346//2
f 332//2 331//2 327//2
f 325//2 346//2 345//2
f 333//2 332//2 327//2
f 325//2 345//2 344//2
f 334//2 333//2 327//2
f 325//2 344//2 343//2
f 335//2 334//2 327//2
f 325//2 343//2 342//2
f 336//2 335//2 327//2
f 336//2 327//2 325//2
f 339//2 338//2 337//2
f 336//2 325//2 342//2
f 340//2 339//2 337//2
f 336//2 342//2 341//2
f 341//2 340//2 337//2
f 64//1 63//1 310//1
f 63//1 311//1 310//1
f 310//1 309//1 64//1
f 65//1 309//1 66//1
f 309//1 308//1 66//1
f 308//1 307//1 67//1
f 67//1 307//1 68//1
f 307//1 306//1 68//1
f 306//1 305//1 69//1
f 68//1 306//1 69//1
f 305//1 304//1 70//1
f 304//1 303//1 71//1
f 303//1 302//1 72//1
f 302//1 301//1 72//1
f 70//1 304//1 71//1
f 301//1 300//1 2//1
f 300//1 299//1 2//1
f 299//1 298//1 3//1
f 298//1 297//1 4//1
f 299//1 3//1 2//1
f 297//1 296//1 4//1
f 296//1 295//1 5//1
f 295//1 294//1 6//1
f 294//1 293//1 6//1
f 7//1 293//1 292//1
f 292//1 291//1 8//1
f 8//1 291//1 9//1
f 291//1 290//1 9//1
f 290//1 289//1 9//1
f 10//1 289//1 11//1
f 289//1 253//1 13//1
f 253//1 109//1 17//1
f 13//1 253//1 14//1
f 109//1 40//1 39//1
f 38//1 37//1 109//1
f 37//1 36//1 109//1
f 109//1 39//1 38//1
f 289//1 10//1 9//1
f 293//1 7//1 6//1
f 69//1 305//1 70//1
f 309//1 65//1 64//1
f 308//1 67//1 66//1
f 3//1 298//1 4//1
f 289//1 13//1 12//1
f 109//1 36//1 24//1
f 71//1 303//1 72//1
f 109//1 24//1 23//1
f 109//1 23//1 22//1
f 109//1 22//1 21//1
f 109//1 21//1 20//1
f 72//1 301//1 2//1
f 109//1 20//1 19//1
f 18//1 17//1 109//1
f 17//1 16//1 253//1
f 109//1 19//1 18//1
f 16//1 15//1 253//1
f 15//1 14//1 253//1
f 4//1 296//1 5//1
f 289//1 12//1 11//1
f 6//1 5//1 295//1
l 1 2
l 24 25
l 25 26
l 26 27
l 27 28
l 28 29
l 29 30
l 30 31
l 31 32
l 32 33
l 33 34
l 34 35
l 35 36
l 72 73
l 73 74
l 74 75
l 75 76
l 76 77
l 77 78
l 78 79
l 79 80
l 80 81
l 81 82
l 82 83
l 83 84
l 84 85
l 85 86
l 86 87
l 87 88
l 88 89
l 89 90
l 90 91
l 91 92
l 92 93
l 93 94
l 94 95
l 95 96
l 96 1
